<?xml version="1.0" encoding="UTF-8" standalone="no"?>
<!-- Created with Inkscape (http://www.inkscape.org/) -->

<svg
   xmlns:dc="http://purl.org/dc/elements/1.1/"
   xmlns:cc="http://creativecommons.org/ns#"
   xmlns:rdf="http://www.w3.org/1999/02/22-rdf-syntax-ns#"
   xmlns:svg="http://www.w3.org/2000/svg"
   xmlns="http://www.w3.org/2000/svg"
   xmlns:sodipodi="http://sodipodi.sourceforge.net/DTD/sodipodi-0.dtd"
   xmlns:inkscape="http://www.inkscape.org/namespaces/inkscape"
   id="svg2"
   version="1.1"
   inkscape:version="0.48.2 r9819"
   width="500"
   height="600"
   sodipodi:docname="Cosmapolitan-glitch.png">
  <metadata
     id="metadata8">
    <rdf:RDF>
      <cc:Work
         rdf:about="">
        <dc:format>image/svg+xml</dc:format>
        <dc:type
           rdf:resource="http://purl.org/dc/dcmitype/StillImage" />
        <dc:title></dc:title>
      </cc:Work>
    </rdf:RDF>
  </metadata>
  <defs
     id="defs6" />
  <sodipodi:namedview
     pagecolor="#ffffff"
     bordercolor="#666666"
     borderopacity="1"
     objecttolerance="10"
     gridtolerance="10"
     guidetolerance="10"
     inkscape:pageopacity="0"
     inkscape:pageshadow="2"
     inkscape:window-width="1321"
     inkscape:window-height="894"
     id="namedview4"
     showgrid="false"
     borderlayer="true"
     inkscape:showpageshadow="false"
     inkscape:zoom="1.7193374"
     inkscape:cx="284.65732"
     inkscape:cy="253.97747"
     inkscape:window-x="310"
     inkscape:window-y="8"
     inkscape:window-maximized="0"
     inkscape:current-layer="g3049" />
  <g
     id="g3049"
     transform="translate(-1.5254237e-6,37.042375)">
    <g
       id="g3091"
       transform="matrix(1.0482553,0,0,1.0482553,2.1395704,-33.039251)">
      <path
         inkscape:connector-curvature="0"
         id="path3087"
         d="m 206,545.7774 c -33.15374,-3.19428 -62.34526,-15.74099 -72.15369,-31.01214 -3.18939,-4.96569 -3.36235,-5.72176 -3.68838,-16.12297 -0.47716,-15.22286 0.62243,-18.61488 8.52995,-26.31322 4.71642,-4.59165 8.95842,-7.45349 16.57536,-11.18243 11.79059,-5.77219 19.50916,-7.9792 43.48676,-12.43435 l 17.25,-3.20513 -0.0349,-82.00358 c -0.038,-89.35683 -0.24458,-93.18563 -5.51232,-102.17435 C 203.39058,249.27848 183.32137,231.89502 152,210.69885 130.21717,195.95772 95.334107,171.076 60.016838,145.08825 47.101099,135.58437 33.677596,126.51346 30.186832,124.93067 16.640007,118.78825 9,110.60591 9,102.23988 9,89.165784 31.95694,77.299939 76,67.609324 122.61238,57.353392 159.70577,54.039725 228.17045,54.015471 c 48.1779,-0.01707 76.24982,1.432519 109.06092,5.631722 l 4.73138,0.605526 2.08202,-4.876359 c 4.20794,-9.855565 6.48345,-13.619241 11.75828,-19.448116 6.79725,-7.511198 11.35953,-10.172615 24.88177,-14.514818 13.71511,-4.404136 22.26392,-5.191632 32.7691,-3.01861 24.49179,5.066182 39.05051,20.560997 47.28156,50.321695 2.39442,8.657393 2.70924,11.567565 2.73519,25.283489 0.0332,17.54519 -1.48666,24.41385 -8.29778,37.5 -6.72578,12.9222 -25.03371,29.05845 -37.48603,33.03945 -2.85277,0.91203 -7.96361,2.73876 -11.35742,4.05939 -10.79475,4.20058 -21.07886,3.36867 -36.32944,-2.93879 -0.97115,-0.40166 -11.54817,6.64063 -30,19.9743 -15.675,11.32707 -33.675,24.08024 -40,28.34036 -23.55236,15.8634 -48.7065,37.37448 -50.57006,43.24601 -0.39112,1.23233 -1.57091,3.40351 -2.62175,4.82485 -4.38044,5.92486 -4.73628,13.43229 -4.7733,100.70443 L 242,445 l 2.34027,0 c 4.96386,0 28.70096,5.38491 39.90777,9.05333 23.42013,7.6663 35.59593,15.79663 41.38904,27.63732 2.33696,4.77657 2.5083,6.01916 2.09653,15.20393 -0.37033,8.26028 -0.91843,10.96289 -3.14717,15.51827 -5.7,11.65039 -22.52696,22.09775 -45.85313,28.46886 -7.61682,2.08039 -24.05001,4.87991 -31.47673,5.36229 -9.52086,2.17905 -29.93259,1.42572 -41.25658,-0.4666 z m 36.79216,-37.35041 c 15.82924,-3.23042 29.81517,-12.7259 35.24215,-23.92699 3.17381,-6.55061 3.90057,-17.76352 1.55024,-23.91779 l -1.64026,-4.29496 -10.22215,-2.5851 C 262.09996,452.28034 255.475,450.84162 253,450.50499 c -2.475,-0.33663 -5.85,-0.83457 -7.5,-1.10654 l -3,-0.4945 2.17148,1.89473 c 3.39478,2.96214 6.32068,8.40437 6.32478,11.76423 0.005,4.4654 -4.21507,8.02215 -11.83602,9.97455 C 230.43481,474.77281 230,474.46399 230,466.03138 230,459.66667 229.81037,459 228,459 c -1.80952,0 -2,0.66667 -2,7 l 0,7 -3.13398,0 c -5.24287,0 -10.852,-2.19463 -13.42525,-5.25276 -3.80724,-4.52465 -3.13938,-9.92544 1.93419,-15.64129 l 2.12504,-2.39405 -3,0.54203 c -1.65,0.29812 -8.73471,1.57808 -15.74379,2.84437 l -12.7438,2.30233 -1.75536,4.54969 c -2.90839,7.53821 -2.36727,16.3522 1.48423,24.17571 9.45766,19.21123 35.39724,29.53634 61.05088,24.30096 z m -13.36997,-56.97298 c 0.35145,-1.40029 0.37367,-2.97529 0.0494,-3.5 -0.32429,-0.5247 0.10176,-0.95401 0.94676,-0.95401 1.366,0 1.58141,-9.06596 1.94247,-81.75 0.22335,-44.9625 0.72384,-83.82443 1.11219,-86.35985 l 0.70609,-4.60986 -4.8384,-0.54536 c -2.66113,-0.29994 -5.17642,-0.33645 -5.58955,-0.0811 -0.41313,0.25533 -0.66605,7.30018 -0.56206,15.65522 0.104,8.35504 0.35371,12.49098 0.55491,9.19098 0.2012,-3.3 0.73998,-6.37636 1.19728,-6.83636 2.05689,-2.06903 3.14911,83.67922 1.60077,125.67325 -0.74237,20.13465 -2.05364,26.07222 -2.79656,12.66311 -0.23922,-4.31778 -0.42481,-2.71255 -0.5528,4.78138 -0.15763,9.22914 0.0802,11.3861 1.30732,11.85699 0.92551,0.35516 1.5,1.8751 1.5,3.96862 0,4.07683 2.45881,4.68541 3.42219,0.84702 z M 57,135 c 0,-0.55 -0.476558,-1 -1.059017,-1 -0.582459,0 -0.780902,0.45 -0.440983,1 0.339919,0.55 0.816476,1 1.059017,1 C 56.801558,136 57,135.55 57,135 z"
         style="fill:#eaf4fa"
         sodipodi:nodetypes="cssssscssssssssscssssssssssssssscssssssccssscssscscsssscssscsscsssccssscscssssssssccsssss" />
      <path
         inkscape:connector-curvature="0"
         id="path3085"
         d="m 209.34937,546.24321 c -7.75503,-0.45442 -26.85796,-4.12067 -35.36965,-6.78818 -21.31724,-6.68068 -37.17034,-17.49696 -41.95861,-28.62759 -1.953,-4.53988 -2.18235,-6.53259 -1.87037,-16.2509 0.31822,-9.91296 0.64271,-11.56556 3.08897,-15.73167 1.57272,-2.67842 5.39306,-6.67073 8.99685,-9.40183 6.65622,-5.04436 22.26415,-12.9777 27.26344,-13.85771 1.65,-0.29044 5.25,-1.2305 8,-2.08901 C 181.72159,452.17839 212.80334,446 215.21188,446 c 0.43347,0 0.78031,-37.6875 0.77076,-83.75 -0.0194,-93.69504 0.0185,-93.10226 -6.60375,-103.19649 C 201.464,246.9889 179.85816,228.85625 148.5,207.96103 131.27791,196.48524 108.92382,180.56147 68.5,150.97363 49.575415,137.12195 33.928612,126.45234 28.331535,123.5826 14.027663,116.24872 7.3472221,107.72133 9.4238288,99.447467 10.356229,95.732488 17.442938,88.457151 23.376341,85.123579 34.569574,78.834868 51.18656,73.473022 77.758449,67.575962 122.25634,57.700611 163.16925,54 227.85042,54 c 45.01363,0 83.69868,2.10077 108.98398,5.918314 4.48391,0.676976 5.41891,0.548398 5.86449,-0.806466 C 342.99044,58.225331 344.96979,53.9 347.09743,49.5 353.69917,35.847533 363.0117,27.160416 375,23.471341 c 3.025,-0.930863 7.87379,-2.540629 10.77508,-3.577258 12.20559,-4.361042 28.7348,-3.055269 42.22492,3.335679 9.65521,4.574159 20.38768,15.734206 25.74458,26.770238 11.39428,23.473954 13.34969,51.63657 5.11368,73.6493 -6.29631,16.82837 -26.07262,36.16965 -42.20833,41.27984 -3.38246,1.07123 -8.72619,2.8754 -11.87495,4.00927 -8.39614,3.02347 -19.41694,2.80515 -27.27498,-0.54029 -3.3,-1.40493 -6.69206,-2.77177 -7.53791,-3.03744 -0.91613,-0.28773 -12.03438,7.08986 -27.5,18.24781 -14.27915,10.30196 -32.64731,23.33442 -40.81814,28.96103 -41.77878,28.76974 -55.28575,42.66656 -58.62492,60.31697 C 242.37797,276.2751 242,309.3437 242,362.04287 c 0,79.39869 0.0916,83.74593 1.75606,83.31067 2.82847,-0.73966 29.44009,5.28467 42.22156,9.55811 22.682,7.58363 33.28931,14.79127 39.08068,26.55522 2.92815,5.94791 3.02027,6.54001 2.48526,15.97439 -0.36225,6.38799 -1.21442,11.28689 -2.44875,14.0773 -6.49392,14.68059 -33.00962,28.22011 -64.3985,32.88336 -5.91627,0.87895 -12.43073,1.70789 -14.47658,1.8421 -8.981,2.56202 -25.11357,0.0354 -36.87036,-8.1e-4 z m 61.0281,-26.16122 c 22.73529,-4.99345 33.46759,-12.56053 38.15954,-26.90535 2.25126,-6.88282 1.61045,-15.03558 -1.75815,-22.3682 -2.19938,-4.7875 -3.38225,-6.07998 -7.44678,-8.13683 C 291.7835,458.85166 251.89757,449 243.98052,449 c -0.625,0 0.46705,1.87323 2.42677,4.16272 7.86694,9.19076 5.07321,16.20428 -7.65729,19.22324 l -2.75,0.65214 0,-7.01905 0,-7.01905 -4.75,-0.0136 c -2.6125,-0.008 -5.7625,-0.285 -7,-0.61664 -2.18917,-0.58667 -2.25,-0.39706 -2.25,7.01366 0,4.18915 -0.14332,7.61663 -0.3185,7.61663 -0.17517,0 -2.67118,-0.69867 -5.54669,-1.55261 -3.93405,-1.16828 -5.71077,-2.34406 -7.17776,-4.75 -3.36611,-5.52059 -2.0416,-10.1834 4.53434,-15.96266 1.98815,-1.74729 1.98314,-1.76022 -0.49139,-1.2691 -1.375,0.27289 -9.70529,1.823 -18.51177,3.4447 -17.14381,3.157 -33.61602,8.41731 -38.32569,12.2391 -7.91651,6.42407 -9.94007,14.28819 -5.93027,23.04674 7.70545,16.83092 26.75875,26.80443 63.76773,33.37944 11.83675,2.10291 43.86585,1.25436 56.37747,-1.49362 z M 234.81989,451.1608 238,448.3216 237.994,365.9108 c -0.004,-52.4829 -0.37292,-83.73332 -1.01711,-86.05256 -1.31452,-4.73253 -2.73815,-5.80602 -8.62143,-6.50103 -9.18747,-1.08533 -8.47547,-8.47604 -8.38452,87.03382 0.0438,45.98766 0.34941,84.96281 0.67914,86.61145 0.32972,1.64863 0.94077,2.99752 1.35787,2.99752 0.4171,0 0.99372,0.9 1.28138,2 0.84432,3.2287 7.51784,2.74298 11.53014,-0.8392 z M 57.854167,134.56173 C 57.659375,134.38943 56.375,133.93935 55,133.56154 l -2.5,-0.68691 2.5,2.01331 c 1.375,1.10732 2.659375,1.5574 2.854167,1.00018 0.194791,-0.55721 0.194791,-1.15409 0,-1.32639 z M 73.5,118.0999 c 6.414106,-2.96295 15.987494,-6.05227 26.50622,-8.55355 3.57158,-0.84929 33.04378,-4.05246 65.49378,-7.11814 l 59,-5.573977 30.5,0.485438 c 28.87531,0.45958 51.04963,2.189956 72.33554,5.644709 3.39045,0.55028 6.6623,1.00391 7.27076,1.00807 0.72033,0.005 1.31222,-4.440734 1.69651,-12.74245 0.32462,-7.0125 1.25568,-15.139518 2.06903,-18.06004 1.10234,-3.958226 1.1796,-5.401939 0.30349,-5.671029 -0.64643,-0.198544 -25.52315,-2.476993 -55.2816,-5.063221 l -54.10627,-4.702232 -70.89373,6.117048 C 85.113933,70.193455 74.966674,71.529615 57,77.221739 c -13.620949,4.31533 -21.168736,7.970839 -26.384168,12.778255 -7.589407,6.995672 -7.071294,14.253906 1.514038,21.210096 5.52878,4.47964 9.166112,6.3318 20.37013,10.37266 l 9,3.24595 3,-1.97858 c 1.65,-1.08822 5.7,-3.22582 9,-4.75022 z"
         style="fill:#d1e7eb"
         sodipodi:nodetypes="csssssssssssssssssssssssssssscsssssssssscccssssssccccsssssssssssccccsssssssccsscsssssscsscsssscssssscss" />
      <path
         inkscape:connector-curvature="0"
         id="path3083"
         d="m 208.67968,545.90807 c -0.002,0.12919 -65.87918,-16.4841 -75.45537,-32.77384 -2.55978,-4.35435 -2.72348,-5.35895 -2.71062,-16.63423 0.0118,-10.35281 0.30863,-12.54906 2.16237,-16 2.21746,-4.12805 6.23997,-8.29409 12.32394,-12.76373 C 149.76134,464.23831 164.45294,457 166.7914,457 c 1.04252,0 4.55345,-0.93711 7.80205,-2.08248 9.14552,-3.22444 40.74469,-8.96498 41.64124,-7.56486 1.07529,1.67926 0.86868,-160.58251 -0.21509,-168.91904 -1.86494,-14.34542 -6.00053,-21.51914 -20.15277,-34.95765 C 187.27831,235.32059 166.888,219.87616 149,207.97717 133.11254,197.40893 95.757588,170.71695 63.178382,146.65335 47.284125,134.91356 34.748789,126.43864 29.508835,123.88996 16.561251,117.59235 11.192188,112.2642 9.6553813,104.18781 7.2791457,91.69997 26.54617,80.264732 66.261903,70.591083 117.09799,58.208823 170.6675,53.236928 241.78922,54.300035 c 37.71101,0.563694 49.70514,1.219163 79.71078,4.356131 8.8,0.920004 17.08282,1.711232 18.40627,1.758284 2.05746,0.07315 2.81443,-0.905065 5.22209,-6.748353 3.39541,-8.240524 10.44642,-18.377682 15.59994,-22.427865 5.2794,-4.14911 8.89157,-5.855219 21.10607,-9.968856 9.38341,-3.160172 11.86783,-3.594622 20.66563,-3.613788 16.683,-0.03634 30.43249,5.915452 41.41029,17.925426 6.74248,7.376435 13.17914,20.427974 16.7279,33.918986 2.20343,8.376565 2.64492,12.272809 2.71946,24 0.0989,15.55449 -1.35763,23.1773 -6.53098,34.18071 -7.62975,16.22801 -26.92903,33.35795 -42.69506,37.8959 -2.54739,0.73321 -7.33161,2.30057 -10.63161,3.48301 -8.639,3.09548 -19.67575,2.44444 -28.54539,-1.68385 l -6.45461,-3.00423 -26,18.80003 c -14.3,10.34002 -33.31191,23.82253 -42.24869,29.96112 -8.93679,6.1386 -20.86179,14.86029 -26.5,19.38154 -11.09516,8.89712 -26.15746,24.01958 -25.30227,25.40332 0.29092,0.47071 -0.14617,1.41612 -0.97129,2.10092 -0.82513,0.68479 -2.50768,4.44828 -3.73899,8.3633 L 241.5,275.5 l 0,85 0,85 4,0.30749 c 7.24954,0.55729 31.57943,6.2877 41.88157,9.86434 15.53684,5.39401 26.31702,11.35926 31.5521,17.45946 7.22616,8.42031 8.06771,10.80502 8.05656,22.83015 -0.012,12.92726 -2.01949,18.01784 -10.09694,25.60346 -7.27377,6.83089 -16.07752,11.56356 -30.41336,16.34947 -23.03932,7.69148 -77.80025,7.9937 -77.80025,7.9937 z m 8.57032,-8.57035 c -0.6875,-0.27741 -1.8125,-0.27741 -2.5,0 -0.6875,0.27741 -0.125,0.50439 1.25,0.50439 1.375,0 1.9375,-0.22698 1.25,-0.50439 z m 26,0 c -0.6875,-0.27741 -1.8125,-0.27741 -2.5,0 -0.6875,0.27741 -0.125,0.50439 1.25,0.50439 1.375,0 1.9375,-0.22698 1.25,-0.50439 z m 12,-1 c -0.6875,-0.27741 -1.8125,-0.27741 -2.5,0 -0.6875,0.27741 -0.125,0.50439 1.25,0.50439 1.375,0 1.9375,-0.22698 1.25,-0.50439 z m -57.0625,-1.02083 c -0.72188,-0.28887 -1.58438,-0.25335 -1.91667,0.0789 -0.33229,0.33229 0.25834,0.56864 1.3125,0.52522 1.16495,-0.048 1.4019,-0.28494 0.60417,-0.60416 z m -5.45653,-1.00988 c -0.97297,-0.25354 -2.32297,-0.23687 -3,0.0371 -0.67703,0.27393 0.11903,0.48137 1.76903,0.46099 1.65,-0.0204 2.20394,-0.2445 1.23097,-0.49804 z m 74.51903,0.0307 c -0.6875,-0.27741 -1.8125,-0.27741 -2.5,0 -0.6875,0.27741 -0.125,0.50439 1.25,0.50439 1.375,0 1.9375,-0.22698 1.25,-0.50439 z m 12.9375,-3.02083 c -0.72188,-0.28887 -1.58438,-0.25335 -1.91667,0.0789 -0.33229,0.33229 0.25834,0.56864 1.3125,0.52522 1.16495,-0.048 1.4019,-0.28494 0.60417,-0.60416 z M 166,527 c -0.825,-0.53316 -1.95,-0.96937 -2.5,-0.96937 -0.55,0 -0.325,0.43621 0.5,0.96937 0.825,0.53316 1.95,0.96937 2.5,0.96937 0.55,0 0.325,-0.43621 -0.5,-0.96937 z m -5,-2 c -0.825,-0.53316 -1.95,-0.96937 -2.5,-0.96937 -0.55,0 -0.325,0.43621 0.5,0.96937 0.825,0.53316 1.95,0.96937 2.5,0.96937 0.55,0 0.325,-0.43621 -0.5,-0.96937 z m 102.17053,-3.44682 c 21.27908,-3.6335 30.41189,-7.29226 37.99403,-15.22107 6.10731,-6.38654 8.28537,-11.68673 8.6902,-21.1471 0.32745,-7.65233 0.10881,-8.81671 -2.74361,-14.6108 -2.84086,-5.7706 -3.5796,-6.50888 -8.85529,-8.8498 -7.07861,-3.1409 -38.39051,-11.24512 -47.25586,-12.23087 -3.575,-0.39751 -7.22136,-1.10161 -8.10302,-1.56466 -1.29753,-0.68148 -1.51755,-0.39484 -1.15454,1.5041 0.24666,1.29031 -0.30634,3.49801 -1.22889,4.906 -3.1275,4.77316 -11.58794,5.74591 -19.8716,2.28478 L 217,455.10205 l 0,7.94898 c 0,4.37193 -0.42883,7.94897 -0.95295,7.94897 -2.60868,0 -6.12093,-2.63593 -7.56384,-5.67663 -2.11108,-4.44877 -0.68091,-9.06459 4.11264,-13.27339 2.43486,-2.13783 2.97261,-3.04998 1.79808,-3.04998 -5.0315,0 -36.12242,6.51656 -43.43989,9.10487 -11.50234,4.06857 -15.74641,6.60078 -19.65753,11.7286 -2.79769,3.66801 -3.29651,5.14752 -3.29651,9.77751 0,16.98658 18.64027,31.60485 49.68386,38.96358 25.74342,6.10235 42.68119,6.87276 65.48667,2.97862 z M 243,460.32569 l 0,-9.67432 2.62888,2.42432 c 3.25076,2.99781 5.56417,8.21084 4.71217,10.61841 C 249.42397,466.28557 245.88068,470 244.32569,470 243.31613,470 243,467.69304 243,460.32569 z m -74.5,59.69839 c 0,-1.78428 -4.61558,-3.57744 -6.92611,-2.69081 -1.34361,0.51559 -1.44859,1.03235 -0.55057,2.7103 0.83395,1.55825 1.90034,1.99663 4.29312,1.76483 2.00077,-0.19382 3.18356,-0.85675 3.18356,-1.78432 z m 135.66709,-3.8986 c 7.53442,-3.25956 16.34646,-10.48917 18.69276,-15.33596 2.31712,-4.78654 2.73354,-10.0986 1.12358,-14.33311 -0.84335,-2.21818 -1.26935,-2.464 -2.5,-1.44266 -0.81589,0.67713 -1.48343,1.66143 -1.48343,2.18735 0,0.52591 -1.82778,4.85831 -4.06173,9.62755 -3.5943,7.67342 -4.80934,9.24677 -10.55792,13.67135 -3.5729,2.75 -6.97522,5.5625 -7.56071,6.25 -1.59699,1.87523 1.20705,1.59934 6.34745,-0.62452 z M 156,512.69428 c 0,-0.71815 -1.17761,-2.85565 -2.6169,-4.75 -3.56703,-4.6948 -8.19603,-14.92222 -8.98388,-19.84918 -0.35648,-2.2293 -1.19712,-4.80404 -1.86809,-5.72164 -2.87435,-3.93091 -10.55102,2.37279 -10.50543,8.62654 0.0449,6.15863 6.43946,15.4365 13.90042,20.1681 C 150.60888,514.13782 156,514.95457 156,512.69428 z M 233.71657,453.36414 238,451.72828 237.998,366.11414 c -0.002,-99.88958 0.779,-92.40964 -9.69876,-92.91057 -5.93491,-0.28374 -6.25595,-0.17672 -7.5,2.5 -1.04717,2.2531 -1.20254,19.69425 -0.79969,89.76731 l 0.5,86.97087 2.5,1.26438 c 3.33209,1.68522 5.59772,1.61292 10.71657,-0.34199 z M 58,135.59783 c 0,-0.7712 -1.4625,-1.89054 -3.25,-2.48743 l -3.25,-1.08525 2.805764,2.48742 C 57.544666,137.384 58,137.51776 58,135.59783 z m 8.199868,-13.46057 C 72.249614,118.10973 82.593063,114.20307 96,110.88192 c 8.95382,-2.21803 19.80276,-3.62478 49,-6.3537 20.625,-1.92772 46.725,-4.40438 58,-5.503697 39.54014,-3.855184 80.25825,-2.3969 128.61064,4.606077 l 4.11064,0.59535 0.55016,-12.362973 c 0.30259,-6.799637 1.27627,-15.014516 2.16372,-18.255285 0.88746,-3.24077 1.44389,-6.061978 1.23651,-6.269352 -0.20737,-0.207374 -25.08083,-2.569185 -55.27435,-5.248469 0,0 -35.97146,-1.535569 -54.34247,-1.542354 C 205.79481,60.538517 157,63.597911 157,63.597911 90.363893,70.846222 80.312287,73.208226 63.554845,77.790845 38.264792,84.706858 25,90.133798 25,99.536337 c 0,8.840233 8.831443,15.873173 29,23.094243 3.575,1.27998 6.814941,2.33673 7.199868,2.34833 0.384927,0.0116 2.634927,-1.26714 5,-2.84165 z"
         style="fill:#b5cddb"
         sodipodi:nodetypes="csssssssssssssssssssssssssssscsssccscccsssssscssssssssssssccccccccccsssscccccsssssssssssssssssssscssssssssssscsssssssssssssssssssssssssccsssscsccsscssssssscsscssssssss" />
      <path
         inkscape:connector-curvature="0"
         id="path3081"
         d="m 206,545.41723 c -1.375,-0.23212 -5.875,-0.91579 -10,-1.51926 -17.70803,-2.59063 -36.73424,-9.23227 -48.60696,-16.96766 -10.81747,-7.04786 -16.44054,-15.22456 -16.98757,-24.70222 -0.31307,-5.42407 0.85086,-6.32725 2.04133,-1.58402 3.55351,14.15828 28.34166,28.67376 58.89522,34.48795 14.0019,2.66448 47.84456,3.70204 62.47836,1.91547 20.70985,-2.52836 41.83878,-9.18032 53.72341,-16.91358 7.24652,-4.71527 14.86828,-12.69292 17.58107,-18.40199 l 2.01089,-4.23192 -0.50049,5.79716 c -0.62873,7.28259 -3.89093,13.02115 -10.87851,19.13651 -10.21558,8.94042 -27.83414,16.29376 -49.42302,20.62736 -8.88718,1.78395 -15.05608,2.22891 -34.33373,2.47646 -12.925,0.16598 -24.625,0.11186 -26,-0.12026 z M 209.2,466.8 c -1.72385,-1.72385 -1.51354,-9.29489 0.3,-10.8 1.30765,-1.08525 1.5,-0.39568 1.5,5.37756 0,3.64234 -0.135,6.62244 -0.3,6.62244 -0.165,0 -0.84,-0.54 -1.5,-1.2 z M 222,262.37511 c -4.46119,-1.55056 -6.73954,-3.53366 -12.45289,-10.83909 -9.8111,-12.54505 -22.20257,-22.87562 -51.16936,-42.65907 -38.14358,-26.05091 -100.299948,-71.3622 -100.339011,-73.146 -0.04851,-2.21533 2.69428,-1.64233 11.946015,2.49565 7.027238,3.14304 30.911506,8.65618 48.515246,11.19864 37.53432,5.42097 97.13247,7.96431 131.5,5.61173 39.47697,-2.70234 84.59284,-7.02591 98.43862,-9.43362 7.66999,-1.33378 7.90143,-1.46208 14.4282,-7.99905 l 6.63318,-6.64353 -3.5,0.61127 c -1.925,0.3362 -5.525,1.22131 -8,1.96692 -7.49975,2.25934 -13.92427,2.83953 -16.45359,1.48588 -1.86535,-0.99831 -12.54149,-0.39447 -57.37895,3.24533 l -55.08718,4.47185 -71.79014,-5.79275 C 96.050944,132.00788 83.846596,130.76308 74.25,128.47948 68.0625,127.0071 63,125.40253 63,124.91376 c 0,-1.3847 6.802868,-5.31982 14.5,-8.38753 16.755398,-6.6779 25.24348,-8.00335 90.02629,-14.05799 60.81511,-5.683813 61.04264,-5.697236 87.47371,-5.160377 25.44782,0.516888 55.01605,2.964577 73.11972,6.052927 l 7.61972,1.29987 0.51816,-11.580329 c 0.60767,-13.580467 2.63758,-23.167117 7.53393,-35.580331 4.2502,-10.775087 8.66114,-18.000591 14.37234,-23.543118 5.96549,-5.78931 10.8189,-8.376948 23.29883,-12.421961 C 390.79462,18.510242 393.72874,18 401.79008,18 c 23.74241,0 41.12053,10.783499 51.56955,32 7.15684,14.531811 9.88801,26.407402 10.00421,43.5 0.1074,15.79646 -1.18418,22.30508 -6.74703,34 -4.36258,9.17159 -9.6287,16.00258 -18.1612,23.55799 -8.21938,7.27814 -14.74205,11.23661 -22.95561,13.93128 -3.3,1.08265 -8.475,2.86328 -11.5,3.95695 -10.14003,3.66606 -23.80544,1.92628 -34.84864,-4.43669 -2.39176,-1.3781 -4.86676,-2.20063 -5.5,-1.82786 -0.63325,0.37278 -12.38104,8.76262 -26.10621,18.6441 -13.72517,9.88148 -31.29429,22.33406 -39.04249,27.6724 -26.34583,18.15171 -42.43167,31.74414 -51.54163,43.55235 -2.30196,2.98376 -5.5974,6.27942 -7.3232,7.32369 -3.11445,1.88454 -14.68921,3.52574 -17.63783,2.5009 z"
         style="fill:#e79b94" />
      <path
         inkscape:connector-curvature="0"
         id="path3079"
         d="m 192.67093,543.34312 c -17.70803,-2.59063 -33.40517,-8.67742 -45.27789,-16.41281 -10.81747,-7.04786 -16.44054,-15.22456 -16.98757,-24.70222 -0.31307,-5.42407 0.85086,-6.32725 2.04133,-1.58402 3.55351,14.15828 28.34166,28.67376 58.89522,34.48795 14.0019,2.66448 47.84456,3.70204 62.47836,1.91547 20.70985,-2.52836 41.83878,-9.18032 53.72341,-16.91358 7.24652,-4.71527 14.86828,-12.69292 17.58107,-18.40199 l 2.01089,-4.23192 -0.50049,5.79716 c -0.62873,7.28259 -5.69727,16.45041 -13.29268,21.7921 -23.0107,16.18294 -42.4237,18.09317 -44.64545,18.624 -6.35818,1.51912 -22.19233,3.99237 -34.04154,3.73266 -12.7789,-0.0107 -30.12312,-2.3648 -41.98466,-4.1028 z M 209.2,466.8 c -1.72385,-1.72385 -1.51354,-9.29489 0.3,-10.8 1.30765,-1.08525 1.5,-0.39568 1.5,5.37756 0,3.64234 -0.135,6.62244 -0.3,6.62244 -0.165,0 -0.84,-0.54 -1.5,-1.2 z m 13.61326,-204.82632 c -1.4777,-0.42178 -2.88605,-0.56755 -3.12966,-0.32394 -0.61069,0.61068 -6.84994,-5.61552 -8.67858,-8.66042 C 209.30876,250.16483 188.12342,229 186.99246,229 c -0.58683,0 -8.22649,-5.69344 -14.5042,-10.80924 -0.55646,-0.45346 -3.70646,-2.54007 -7,-4.6369 -3.29354,-2.09684 -6.13826,-4.20425 -6.32159,-4.68314 C 158.98333,208.39182 158.38941,208 157.84684,208 c -1.06099,0 -9.49187,-5.56539 -11.66827,-7.70245 -0.72678,-0.71365 -1.62678,-1.2981 -2,-1.29877 -0.37321,-6.7e-4 -1.98606,-1.12567 -3.58411,-2.5 -1.59805,-1.37433 -3.17305,-2.49933 -3.5,-2.5 -0.32695,-6.7e-4 -1.90195,-1.12567 -3.5,-2.5 -1.59805,-1.37433 -3.17305,-2.49933 -3.5,-2.5 -0.32695,-6.7e-4 -1.90195,-1.12567 -3.5,-2.5 C 124.99641,185.12445 123.39377,184 123.03302,184 c -0.36074,0 -1.52825,-0.79109 -2.59446,-1.75797 -1.06621,-0.96688 -3.23931,-2.65438 -4.82912,-3.75 -1.5898,-1.09562 -4.13709,-2.89203 -5.66063,-3.99203 -1.52355,-1.1 -5.6228,-3.98201 -9.10945,-6.40447 C 97.352714,165.67307 94.275,163.41268 94,163.07243 93.725,162.73219 92.161696,161.60027 90.52599,160.55707 87.209493,158.44191 86.935722,158.23843 82,154.22008 80.075,152.65287 74.3375,148.31045 69.25,144.57026 60.750632,138.32176 57.99473,135 61.310018,135 c 0.720511,0 4.433011,1.52024 8.25,3.37831 6.16805,3.00254 17.746268,6.2577 25.014065,7.03257 1.41566,0.15093 5.803127,2.96597 9.749927,6.25564 8.11977,6.76785 26.25486,20.33348 27.18262,20.33348 0.33627,0 0.30049,-0.50308 -0.0795,-1.11795 -0.38001,-0.61487 -1.02928,-2.61816 -1.44282,-4.45176 -0.71808,-3.18388 -0.63345,-3.31553 1.88191,-2.92731 1.4486,0.22357 7.92131,0.65002 14.38381,0.94766 l 11.75,0.54116 0,-5.6209 0,-5.6209 3.25,0.6958 c 2.88408,0.61745 49.71139,2.01356 66.75,1.99008 6.22485,-0.009 20.31861,-0.85573 32,-1.92346 3.025,-0.2765 8.425,-0.69508 12,-0.93019 3.575,-0.23511 16.625,-1.39899 29,-2.5864 12.375,-1.18742 24.75,-2.32247 27.5,-2.52233 4.62593,-0.3362 11.17908,-1.14597 16,-1.97711 1.1,-0.18964 3.71961,-0.60527 5.82137,-0.92361 5.17108,-0.78323 6.24621,-1.47903 13.17045,-8.52358 l 5.99181,-6.09593 -3.49181,0.61502 c -1.9205,0.33826 -5.51682,1.22506 -7.99182,1.97067 -7.50408,2.26065 -13.92412,2.83961 -16.45693,1.48409 -1.86919,-1.00036 -12.66367,-0.39717 -58.16908,3.25049 -45.20185,3.62332 -57.59302,4.31878 -64.87399,3.64111 -13.02967,-1.21274 -20.02248,-1.80724 -28.5,-2.42297 -11.05215,-0.80273 -30.83901,-2.48606 -36,-3.06264 -2.475,-0.27651 -7.425,-0.70252 -11,-0.94671 -6.00179,-0.40994 -10.11536,-0.74602 -25,-2.0425 -3.025,-0.26348 -8.2,-0.67244 -11.5,-0.90879 C 91.376847,131.44788 85.081939,130.89591 83.360496,130.50202 82.337223,130.26789 78.575,129.34978 75,128.46178 c -3.575,-0.888 -7.366966,-1.79464 -8.426591,-2.01475 -5.838177,-1.21276 -2.55864,-4.11094 10.625927,-9.39029 17.843202,-7.14477 26.674134,-8.53775 92.800664,-14.63826 60.04104,-5.539101 62.04563,-5.65952 84.5,-5.076068 29.1347,0.757033 70.41631,4.504698 79.61176,7.227388 1.39825,0.41401 1.68146,-1.08243 2.13789,-11.296287 0.61521,-13.767064 2.62867,-23.317535 7.54188,-35.773513 4.2502,-10.775087 8.66114,-18.000591 14.37234,-23.543118 5.96549,-5.78931 10.8189,-8.376948 23.29883,-12.421961 C 390.79462,18.510242 393.72874,18 401.79008,18 c 23.74241,0 41.12053,10.783499 51.56955,32 7.15684,14.531811 9.88801,26.407402 10.00421,43.5 0.1074,15.79646 -1.18418,22.30508 -6.74703,34 -4.36258,9.17159 -9.6287,16.00258 -18.1612,23.55799 -8.21938,7.27814 -14.74205,11.23661 -22.95561,13.93128 -3.3,1.08265 -8.475,2.86328 -11.5,3.95695 -10.1555,3.67165 -23.80383,1.92667 -34.89142,-4.46098 -3.89722,-2.24523 -4.62871,-2.37381 -6.5,-1.14255 -2.88896,1.90086 -32.85984,23.36621 -34.13457,24.44742 -0.5643,0.47863 -2.3643,1.73057 -4,2.78209 -1.63571,1.05152 -3.84636,2.70295 -4.91257,3.66983 -1.06621,0.96688 -2.27157,1.75797 -2.67857,1.75797 -0.40701,0 -1.33466,0.5625 -2.06144,1.25 -2.68249,2.53749 -8.71816,6.75 -9.67137,6.75 -0.54087,0 -1.13339,0.39421 -1.31673,0.87603 -0.18333,0.48182 -3.48333,2.94817 -7.33333,5.48079 -8.75669,5.76035 -15.42373,10.44445 -17.0378,11.97036 -0.68232,0.64505 -2.49913,2.07282 -4.03735,3.17282 -5.95318,4.25719 -14.80425,11.88164 -20.91968,18.02053 -3.42148,3.43461 -5.73574,6.116 -12.00517,13.90966 -1.07127,1.33172 -5.35284,3.86493 -7,4.14158 -5.15651,0.86608 -10.47069,1.03443 -12.68674,0.40191 z"
         style="fill:#a0a7a9"
         sodipodi:nodetypes="cssssssscsssccssssssssssscssssssssssssscsssssssscssscccscssssssscsssssssssssssssssssssssssssssssssssscsssssss" />
      <path
         inkscape:connector-curvature="0"
         id="path3077"
         d="m 221.71221,261.71062 c -2.76869,-0.67772 -4.92107,-2.31054 -8,-6.0689 C 201.16191,240.32194 184.67723,226.16979 160.5,209.95885 128.5332,188.52498 60,138.34609 60,136.37439 c 0,-2.01921 1.322538,-1.73486 9.297733,1.99899 3.962891,1.85537 12.04528,4.40617 17.960865,5.66845 9.834723,2.09855 11.2045,2.67943 15.998502,6.78449 6.17339,5.28621 27.37259,21.17368 28.25277,21.17368 0.33449,0 0.29725,-0.50308 -0.0828,-1.11795 -0.38001,-0.61487 -1.02928,-2.61816 -1.44282,-4.45176 -0.71808,-3.18388 -0.63345,-3.31553 1.88191,-2.92731 1.4486,0.22357 7.92131,0.65002 14.38381,0.94766 l 11.75,0.54116 0,-5.60719 0,-5.60719 3.53829,0.66378 c 4.33018,0.81235 68.3222,2.50801 74.51365,1.97446 2.44643,-0.21082 11.42306,-0.85931 19.94806,-1.44108 15.96961,-1.08983 41.3098,-3.2645 58,-4.97749 5.225,-0.53627 12.425,-1.21808 16,-1.51513 3.575,-0.29705 10.775,-1.21581 16,-2.04168 l 9.5,-1.5016 7,-7.08172 7,-7.08173 -4,0.58637 c -2.2,0.32251 -6.46057,1.27308 -9.46793,2.11239 -5.7903,1.61598 -14.63935,2.05247 -15.19874,0.7497 -0.18333,-0.42697 -23.28333,1.11574 -51.33333,3.42824 -28.05,2.3125 -54.52986,4.23684 -58.84414,4.27631 -7.26869,0.0665 -24.07136,-1.23281 -115.15586,-8.90471 -31.840353,-2.68187 -48.953597,-5.32425 -51.8232,-8.00182 -2.21469,-2.06648 15.763183,-9.6823 33.008295,-13.98304 10.100785,-2.51902 20.737415,-3.76965 73.314905,-8.62019 60.04104,-5.539101 62.04563,-5.65952 84.5,-5.076068 29.36736,0.763078 70.48314,4.511838 79.75,7.271258 1.54612,0.4604 1.75069,-0.27314 1.7559,-6.296282 0.0194,-22.383918 8.85596,-49.440112 20.20169,-61.85415 7.0245,-7.685916 11.01794,-10.008577 25.21085,-14.663118 11.6181,-3.810135 12.48435,-3.945519 22.58156,-3.529251 18.114,0.74677 31.24297,6.878048 41.31441,19.293989 12.73702,15.702034 20.42886,44.312419 17.77697,66.122822 -2.10163,17.28482 -7.95574,29.95253 -19.41862,42.01997 -9.14598,9.62834 -17.63394,15.08838 -31.67276,20.37411 -10.40044,3.91585 -12.36053,4.33261 -20.5,4.35882 -8.68335,0.0279 -9.31665,-0.12882 -18,-4.45581 L 364.5,161.5 335.9867,182 c -15.68232,11.275 -32.10732,22.94001 -36.5,25.92224 -23.75983,16.13077 -40.5551,30.06812 -51.01594,42.33496 -3.86609,4.53354 -8.59109,8.98373 -10.5,9.88932 -4.4011,2.08787 -11.3771,2.75897 -16.25855,1.5641 z"
         style="fill:#e28476" />
      <path
         inkscape:connector-curvature="0"
         id="path3075"
         d="m 219.18996,260.32325 c -1.82052,-0.89717 -5.25214,-4.14942 -7.62583,-7.22723 C 201.44745,239.97836 184.70595,225.9135 156.5,206.8356 143.69839,198.17686 85.611516,156.85283 83.671844,155.02436 c -0.455486,-0.42937 3.819514,0.53277 9.5,2.13809 5.680486,1.60532 13.331496,3.30406 17.002246,3.77499 6.00246,0.77007 7.36099,1.40267 13.5,6.28631 6.87191,5.46665 53.87826,40.12638 58.74595,43.31581 2.50854,1.64367 2.58533,1.63707 1.90294,-0.16339 -0.39109,-1.03189 -1.24431,-2.41637 -1.89605,-3.07663 -0.65174,-0.66025 -1.49199,-3.24775 -1.86723,-5.75 C 180.18447,199.0473 179.56065,197 179.17345,197 178.23388,197 175,187.79127 175,185.11579 175,183.9521 174.63432,183 174.18739,183 173.11253,183 169,173.5183 169,171.04015 c 0,-1.06742 -0.7875,-2.43581 -1.75,-3.04085 -1.31046,-0.82378 1.32681,-0.99899 10.5,-0.69758 l 12.25,0.4025 0,-5.79413 0,-5.79412 28.75,0.14867 c 16.35204,0.0846 33.70918,-0.36576 40.25,-1.04427 6.325,-0.65611 17.35,-1.66827 24.5,-2.24923 7.15,-0.58096 20.08393,-1.75082 28.74206,-2.5997 8.65813,-0.84887 16.17221,-1.39221 16.69794,-1.20742 0.52574,0.18479 -4.46051,6.07232 -11.08056,13.0834 -8.82581,9.34714 -11.62957,12.90356 -10.51109,13.33276 0.83895,0.32194 1.28063,1.2231 0.98152,2.00258 -0.36615,0.95417 0.16388,1.41724 1.62216,1.41724 1.1913,0 1.88789,0.45 1.54797,1 -1.41199,2.28464 2.99222,0.73682 8.30487,-2.91867 9.21636,-6.34153 32.34393,-25.87133 31.35853,-26.48034 -0.49821,-0.30792 3.4237,-4.88717 8.71538,-10.17612 l 9.62122,-9.61627 -4,0.56969 c -2.2,0.31333 -6.46057,1.25639 -9.46793,2.0957 -6.02318,1.68097 -14.67614,2.0372 -15.19874,0.62571 -0.18774,-0.50707 -24.57418,1.07867 -55.83333,3.63059 l -55.5,4.53089 -70.5,-5.71837 c -68.385792,-5.54688 -79.400598,-6.7731 -90.918688,-10.1215 l -5.460298,-1.58735 4.439493,-2.73454 C 80.280543,113.95645 98.240299,109.51329 130.5,106.40479 235.86975,96.251514 228.72114,96.773611 254,97.384992 c 12.925,0.312597 28.675,1.055356 35,1.650575 13.6764,1.287023 41.24393,4.736563 44.61536,5.582743 2.33884,0.58701 2.38475,0.46679 2.39054,-6.259902 0.0193,-22.425254 8.84657,-49.470853 20.20169,-61.89517 7.0245,-7.685916 11.01794,-10.008577 25.21085,-14.663118 11.6181,-3.810135 12.48435,-3.945519 22.58156,-3.529251 18.114,0.74677 31.24297,6.878048 41.31441,19.293989 12.73702,15.702034 20.42886,44.312419 17.77697,66.122822 -2.10163,17.28482 -7.95574,29.95253 -19.41862,42.01997 -9.14598,9.62834 -17.63394,15.08838 -31.67276,20.37411 -10.40044,3.91585 -12.36053,4.33261 -20.5,4.35882 -8.68335,0.0279 -9.31665,-0.12882 -18,-4.45581 L 364.5,161.5 340,179.07239 c -13.475,9.66482 -31.25,22.2296 -39.5,27.92174 -28.75842,19.84205 -43.09875,31.77686 -53.55051,44.56769 -3.22035,3.94105 -7.40691,7.90189 -9.30347,8.80186 -4.45745,2.11521 -14.12484,2.09403 -18.45606,-0.0404 z"
         style="fill:#a8ea45" />
      <path
         inkscape:connector-curvature="0"
         id="path3073"
         d="m 219.18996,260.32325 c -1.82052,-0.89717 -5.25214,-4.14942 -7.62583,-7.22723 C 201.44745,239.97836 184.70595,225.9135 156.5,206.8356 143.69839,198.17686 85.611516,156.85283 83.671844,155.02436 c -0.455486,-0.42937 3.819514,0.53277 9.5,2.13809 5.680486,1.60532 13.331496,3.30406 17.002246,3.77499 6.00246,0.77007 7.36099,1.40267 13.5,6.28631 6.87191,5.46665 53.87826,40.12638 58.74595,43.31581 2.50854,1.64367 2.58533,1.63707 1.90294,-0.16339 -0.39109,-1.03189 -1.24431,-2.41637 -1.89605,-3.07663 -0.65174,-0.66025 -1.49199,-3.24775 -1.86723,-5.75 C 180.18447,199.0473 179.56065,197 179.17345,197 178.23388,197 175,187.79127 175,185.11579 175,183.9521 174.63432,183 174.18739,183 173.11253,183 169,173.5183 169,171.04015 c 0,-1.06742 -0.7875,-2.43581 -1.75,-3.04085 -1.31046,-0.82378 1.32681,-0.99899 10.5,-0.69758 l 12.25,0.4025 0,-5.79413 0,-5.79412 28.75,0.14867 c 16.35204,0.0846 33.70918,-0.36576 40.25,-1.04427 6.325,-0.65611 17.35,-1.66827 24.5,-2.24923 7.15,-0.58096 20.08393,-1.75082 28.74206,-2.5997 8.65813,-0.84887 16.17221,-1.39221 16.69794,-1.20742 0.52574,0.18479 -4.46051,6.07232 -11.08056,13.0834 -8.82581,9.34714 -11.62957,12.90356 -10.51109,13.33276 0.83895,0.32194 1.28063,1.2231 0.98152,2.00258 -0.36615,0.95417 0.16388,1.41724 1.62216,1.41724 1.1913,0 1.88789,0.45 1.54797,1 -1.41199,2.28464 2.99222,0.73682 8.30487,-2.91867 9.54361,-6.5667 32.32754,-25.88146 31.28797,-26.52395 -0.53702,-0.3319 2.87547,-4.23169 7.58333,-8.6662 6.10526,-5.75079 9.09875,-7.9218 10.4395,-7.57118 1.48223,0.38761 4.11959,-2.55505 12.47061,-13.91422 C 387.41123,112.4826 392.52657,106 392.9537,106 c 3.25246,0 9.72735,10.1789 15.42563,24.25 0.83524,2.0625 1.87908,3.74776 2.31964,3.74503 0.44057,-0.003 2.10897,-1.05154 3.70756,-2.33068 l 2.90654,-2.32571 -8.28907,-14.91932 c -4.55899,-8.20563 -8.48681,-15.26625 -8.7285,-15.690276 -0.78272,-1.373216 5.90721,-3.476911 19.9545,-6.274836 11.9567,-2.381522 13.75,-2.98979 13.75,-4.663847 0,-1.37211 -0.50272,-1.770315 -1.75,-1.386189 C 426.95634,88.034463 404.51168,93 402.43629,93 c -2.19995,0 -2.43605,-0.412282 -2.43377,-4.25 0.003,-4.979836 3.87141,-20.018468 7.35433,-28.589982 l 2.43883,-6.002008 -2.9299,-1.213607 c -1.61145,-0.667484 -3.0612,-1.040536 -3.22167,-0.829005 -0.16046,0.211531 -1.25427,6.234602 -2.43068,13.384602 -4.23831,25.759714 -4.80051,25.990093 -18.30247,7.5 -3.01219,-4.125 -7.00975,-9.975 -8.88347,-13 -1.87372,-3.025 -3.53238,-5.673456 -3.68592,-5.885458 -0.15353,-0.212002 -1.45608,0.385691 -2.89454,1.328206 -2.20432,1.444327 -2.38972,1.897838 -1.17964,2.885459 1.52046,1.240941 14.1857,17.160628 19.54863,24.571831 3.94257,5.448362 4.14644,8.783538 0.61888,10.124713 -5.94702,2.261054 -36.89937,0.418043 -38.62613,-2.299934 C 347.38079,90.051168 346.97049,87.925 346.897,86 L 346.76337,82.5 346,85.5 c -0.41985,1.65 -0.81715,5.025 -0.88288,7.5 l -0.11952,4.5 18.78249,-0.308401 C 384.51389,96.851158 388,97.458499 388,101.41113 c 0,3.54721 -7.78981,14.40842 -13.68694,19.0835 -12.31649,9.76415 -12.11931,9.57884 -9.05627,8.51089 4.38527,-1.52897 8.24572,-3.71821 11.84843,-6.71921 l 3.34498,-2.78631 -2.13373,3 c -4.00808,5.63533 -7.62552,8.23189 -12.31647,8.84059 -2.475,0.32116 -6.96057,1.27591 -9.96793,2.12167 -6.01062,1.69036 -14.67436,2.05372 -15.19874,0.63744 -0.18774,-0.50707 -24.57418,1.07867 -55.83333,3.63059 l -55.5,4.53089 -70.5,-5.71837 c -68.385792,-5.54688 -79.400598,-6.7731 -90.918688,-10.1215 l -5.460298,-1.58735 4.439493,-2.73454 C 80.280543,113.95645 98.240299,109.51329 130.5,106.40479 235.86975,96.251514 228.72114,96.773611 254,97.384992 c 12.925,0.312597 28.675,1.055356 35,1.650575 13.6764,1.287023 41.24393,4.736563 44.61536,5.582743 2.33884,0.58701 2.38475,0.46679 2.39054,-6.259902 0.0193,-22.425254 8.84657,-49.470853 20.20169,-61.89517 7.0245,-7.685916 11.01794,-10.008577 25.21085,-14.663118 11.6181,-3.810135 12.48435,-3.945519 22.58156,-3.529251 18.114,0.74677 31.24297,6.878048 41.31441,19.293989 12.73702,15.702034 20.42886,44.312419 17.77697,66.122822 -2.10163,17.28482 -7.95574,29.95253 -19.41862,42.01997 -9.14598,9.62834 -17.63394,15.08838 -31.67276,20.37411 -10.40044,3.91585 -12.36053,4.33261 -20.5,4.35882 -8.68335,0.0279 -9.31665,-0.12882 -18,-4.45581 L 364.5,161.5 340,179.07239 c -13.475,9.66482 -31.25,22.2296 -39.5,27.92174 -28.75842,19.84205 -43.09875,31.77686 -53.55051,44.56769 -3.22035,3.94105 -7.40691,7.90189 -9.30347,8.80186 -4.45745,2.11521 -14.12484,2.09403 -18.45606,-0.0404 z"
         style="fill:#e56757" />
      <path
         inkscape:connector-curvature="0"
         id="path3071"
         d="m 268.5,227.27792 c -8.87591,-0.86834 -11.5,-1.49158 -11.5,-2.73132 0,-0.97137 -2.70117,-1.52419 -10,-2.0466 -5.5,-0.39366 -10,-1.1172 -10,-1.60787 C 237,220.40146 231.825,220 225.5,220 c -9.14595,0 -11.5,-0.28427 -11.5,-1.38871 0,-0.81003 -1.54407,-1.67838 -3.70543,-2.08385 C 206.88074,215.887 203,212.86498 203,210.84699 203,210.38115 201.97434,210 200.72076,210 c -1.25358,0 -2.92792,-0.9 -3.72076,-2 -0.79284,-1.1 -2.01718,-2 -2.72076,-2 C 193.57566,206 193,205.325 193,204.5 c 0,-0.825 -0.675,-1.5 -1.5,-1.5 -0.825,0 -1.5,-0.675 -1.5,-1.5 0,-0.83864 -0.89127,-1.5 -2.02144,-1.5 -1.18578,0 -2.49233,-1.03349 -3.16051,-2.5 -0.6265,-1.375 -1.9106,-2.5 -2.85357,-2.5 -1.10498,0 -1.92778,-1.0665 -2.31448,-3 -0.42963,-2.14815 -1.175,-3 -2.625,-3 -1.58333,0 -2.025,-0.65432 -2.025,-3 0,-1.65 -0.36568,-3 -0.81261,-3 C 173.11253,183 169,173.5183 169,171.04015 c 0,-1.06742 -0.7875,-2.39945 -1.75,-2.96005 -1.35755,-0.7907 -0.61747,-1.0261 3.30011,-1.04969 4.61512,-0.0278 23.48891,1.19153 37.69989,2.43557 l 5.75,0.50336 0.008,-6.73467 0.008,-6.73467 16.72115,-0.16767 c 9.19664,-0.0922 21.90551,-0.64674 28.24193,-1.23229 6.33643,-0.58555 17.37078,-1.54175 24.52078,-2.12491 7.15,-0.58315 20.08393,-1.75481 28.74206,-2.60369 8.65813,-0.84887 16.17221,-1.39221 16.69794,-1.20742 0.52574,0.18479 -4.46051,6.07232 -11.08056,13.0834 -8.82581,9.34714 -11.62957,12.90356 -10.51109,13.33276 0.83895,0.32194 1.28063,1.2231 0.98152,2.00258 -0.36615,0.95417 0.16388,1.41724 1.62216,1.41724 1.1913,0 1.88789,0.45 1.54797,1 -1.41199,2.28464 2.99222,0.73682 8.30487,-2.91867 9.54361,-6.5667 32.32754,-25.88146 31.28797,-26.52395 -0.53702,-0.3319 2.87547,-4.23169 7.58333,-8.6662 6.10526,-5.75079 9.09875,-7.9218 10.4395,-7.57118 1.48223,0.38761 4.11959,-2.55505 12.47061,-13.91422 C 387.41123,112.4826 392.52657,106 392.9537,106 c 3.25246,0 9.72735,10.1789 15.42563,24.25 0.83524,2.0625 1.87908,3.74776 2.31964,3.74503 0.44057,-0.003 2.10897,-1.05154 3.70756,-2.33068 l 2.90654,-2.32571 -8.28907,-14.91932 c -4.55899,-8.20563 -8.48681,-15.26625 -8.7285,-15.690276 -0.78272,-1.373216 5.90721,-3.476911 19.9545,-6.274836 11.9567,-2.381522 13.75,-2.98979 13.75,-4.663847 0,-1.37211 -0.50272,-1.770315 -1.75,-1.386189 C 426.95634,88.034463 404.51168,93 402.43629,93 c -2.19995,0 -2.43605,-0.412282 -2.43377,-4.25 0.003,-4.979836 3.87141,-20.018468 7.35433,-28.589982 l 2.43883,-6.002008 -2.9299,-1.213607 c -1.61145,-0.667484 -3.0612,-1.040536 -3.22167,-0.829005 -0.16046,0.211531 -1.25427,6.234602 -2.43068,13.384602 -4.23831,25.759714 -4.80051,25.990093 -18.30247,7.5 -3.01219,-4.125 -7.00975,-9.975 -8.88347,-13 -1.87372,-3.025 -3.53238,-5.673456 -3.68592,-5.885458 -0.15353,-0.212002 -1.45608,0.385691 -2.89454,1.328206 -2.20432,1.444327 -2.38972,1.897838 -1.17964,2.885459 1.52046,1.240941 14.1857,17.160628 19.54863,24.571831 3.94257,5.448362 4.14644,8.783538 0.61888,10.124713 -5.94702,2.261054 -36.89937,0.418043 -38.62613,-2.299934 C 347.38079,90.051168 346.97049,87.925 346.897,86 L 346.76337,82.5 346,85.5 c -0.41985,1.65 -0.81715,5.025 -0.88288,7.5 l -0.11952,4.5 18.78249,-0.308401 C 384.51389,96.851158 388,97.458499 388,101.41113 c 0,3.54721 -7.78981,14.40842 -13.68694,19.0835 -12.31649,9.76415 -12.11931,9.57884 -9.05627,8.51089 4.38527,-1.52897 8.24572,-3.71821 11.84843,-6.71921 l 3.34498,-2.78631 -2.13373,3 c -4.00808,5.63533 -7.62552,8.23189 -12.31647,8.84059 -2.475,0.32116 -6.96057,1.27591 -9.96793,2.12167 -6.01355,1.69119 -14.67478,2.05352 -15.19874,0.63583 -0.18811,-0.50897 -24.29516,1.07168 -55.33333,3.6281 l -55,4.53 -45,-3.67333 C 101.70498,131.74271 83.635597,130.11206 78.812107,128.95493 L 74,127.80052 l 0,-4.72718 0,-4.72718 7.75,-2.64028 c 16.369271,-5.57672 23.23217,-6.69504 65.75,-10.71409 23.1,-2.18355 51.45,-4.93029 63,-6.103854 30.68105,-3.117421 63.586,-2.124059 105.36536,3.180854 8.45095,1.07306 16.43845,2.22034 17.75,2.54952 2.33884,0.58701 2.38475,0.46679 2.39054,-6.259902 0.0193,-22.425254 8.84657,-49.470853 20.20169,-61.89517 7.0245,-7.685916 11.01794,-10.008577 25.21085,-14.663118 11.6181,-3.810135 12.48435,-3.945519 22.58156,-3.529251 18.114,0.74677 31.24297,6.878048 41.31441,19.293989 12.73702,15.702034 20.42886,44.312419 17.77697,66.122822 -2.10163,17.28482 -7.95574,29.95253 -19.41862,42.01997 -9.14598,9.62834 -17.63394,15.08838 -31.67276,20.37411 -10.40044,3.91585 -12.36053,4.33261 -20.5,4.35882 -8.68335,0.0279 -9.31665,-0.12882 -18,-4.45581 L 364.5,161.5 340,179.07239 c -13.475,9.66482 -31.25,22.22479 -39.5,27.91105 -8.25,5.68626 -17.7,12.42713 -21,14.97971 -7.3702,5.70092 -7.31676,5.67511 -11,5.31477 z M 175,211 c 0,-0.5701 -2.96802,-1 -6.90405,-1 -6.82119,0 -7.0162,-0.0757 -16.25,-6.30749 -9.9631,-6.72399 -66.672319,-47.24613 -68.336441,-48.83048 -0.544771,-0.51866 1.024201,-0.23219 3.486603,0.6366 6.408039,2.26089 18.601248,5.21153 24.932658,6.03346 4.68734,0.60851 6.59939,1.62101 14,7.41352 4.71418,3.68982 13.74168,10.49903 20.06112,15.13158 6.31943,4.63254 17.28895,12.81031 24.37669,18.17281 l 12.8868,9.75 -4.12669,0 C 176.85701,212 175,211.55 175,211 z"
         style="fill:#93d33a" />
      <path
         inkscape:connector-curvature="0"
         id="path3069"
         d="m 268.5,227.27792 c -8.87591,-0.86834 -11.5,-1.49158 -11.5,-2.73132 0,-0.97137 -2.70117,-1.52419 -10,-2.0466 -5.5,-0.39366 -10,-1.1172 -10,-1.60787 C 237,220.40146 231.825,220 225.5,220 c -9.14595,0 -11.5,-0.28427 -11.5,-1.38871 0,-0.81003 -1.54407,-1.67838 -3.70543,-2.08385 C 206.88074,215.887 203,212.86498 203,210.84699 203,210.38115 201.97434,210 200.72076,210 c -1.25358,0 -2.92792,-0.9 -3.72076,-2 -0.79284,-1.1 -2.01718,-2 -2.72076,-2 C 193.57566,206 193,205.325 193,204.5 c 0,-0.825 -0.675,-1.5 -1.5,-1.5 -0.825,0 -1.5,-0.675 -1.5,-1.5 0,-0.83864 -0.89127,-1.5 -2.02144,-1.5 -1.18578,0 -2.49233,-1.03349 -3.16051,-2.5 -0.6265,-1.375 -1.9106,-2.5 -2.85357,-2.5 -1.10498,0 -1.92778,-1.0665 -2.31448,-3 -0.42963,-2.14815 -1.175,-3 -2.625,-3 -1.58333,0 -2.025,-0.65432 -2.025,-3 0,-1.65 -0.36568,-3 -0.81261,-3 C 173.11253,183 169,173.5183 169,171.04015 c 0,-1.06742 -0.7875,-2.39945 -1.75,-2.96005 -1.35755,-0.7907 -0.61747,-1.0261 3.30011,-1.04969 4.61512,-0.0278 23.48891,1.19153 37.69989,2.43557 l 5.75,0.50336 0.008,-6.73467 0.008,-6.73467 16.72115,-0.16767 c 9.19664,-0.0922 21.90551,-0.64674 28.24193,-1.23229 6.33643,-0.58555 17.37078,-1.54175 24.52078,-2.12491 7.15,-0.58315 20.08393,-1.75481 28.74206,-2.60369 8.65813,-0.84887 16.17221,-1.39221 16.69794,-1.20742 0.52574,0.18479 -4.46051,6.07232 -11.08056,13.0834 -8.82581,9.34714 -11.62957,12.90356 -10.51109,13.33276 0.83895,0.32194 1.28063,1.2231 0.98152,2.00258 -0.36615,0.95417 0.16388,1.41724 1.62216,1.41724 1.1913,0 1.88789,0.45 1.54797,1 -1.41199,2.28464 2.99222,0.73682 8.30487,-2.91867 10.6165,-7.30492 32.3142,-25.88971 31.10134,-26.6393 -0.81743,-0.50519 -0.66349,-0.99836 0.51801,-1.65956 1.30094,-0.72804 2.96931,0.12723 7.37841,3.78243 3.13356,2.59776 9.07237,6.34587 13.19737,8.32915 6.48845,3.1196 8.66841,3.65265 16.163,3.9522 10.72803,0.42879 17.09634,-1.27949 25.88378,-6.94325 14.99042,-9.66175 25.75927,-24.45163 29.55571,-40.59168 C 445.74091,108.22013 444.99292,88.8341 442.04711,77 434.22809,45.588858 414.39174,29.022647 386,30.192599 378.28612,30.510468 375.37192,31.10251 370.5,33.341542 363.88817,36.380199 356.46952,43.063365 352.00828,50 c -4.24691,6.603372 -9.61284,21.242945 -11.55124,31.514596 -1.9566,10.368086 -1.55814,32.905784 0.71312,40.335634 1.23747,4.04808 1.30558,3.48384 0.98049,-8.12371 C 341.68461,97.086079 340.29283,98 366.10006,98 c 23.57453,0 23.92668,0.150178 19.57837,8.34943 -3.66296,6.90693 -7.78066,11.15364 -18.04775,18.61317 -4.73697,3.44164 -8.40225,6.59799 -8.14507,7.01411 0.54325,0.879 -9.3526,3.02329 -13.95239,3.02329 -1.72327,0 -3.56072,-0.41015 -4.08322,-0.91144 -0.57358,-0.55031 -22.74257,0.88725 -55.95,3.62809 l -55,4.53954 -45,-3.67333 C 101.70498,131.74271 83.635597,130.11206 78.812107,128.95493 L 74,127.80052 l 0,-4.72718 0,-4.72718 7.75,-2.64028 c 16.369271,-5.57672 23.23217,-6.69504 65.75,-10.71409 23.1,-2.18355 51.45,-4.93029 63,-6.103854 30.68105,-3.117421 63.586,-2.124059 105.36536,3.180854 8.45095,1.07306 16.37012,2.20319 17.59817,2.51141 2.17729,0.54647 2.25019,0.29134 2.93149,-10.259898 1.69535,-26.255519 10.8446,-50.173104 23.60161,-61.698293 4.2565,-3.845488 15.13516,-9.619766 18.12625,-9.62122 0.89259,-4.34e-4 3.81759,-0.975977 6.5,-2.167873 3.59177,-1.595955 7.51259,-2.282891 14.87712,-2.606499 36.20448,-1.590878 59.55665,24.276222 64.00022,70.892778 1.37466,14.421295 -3.51249,34.064535 -11.51476,46.282005 -5.12827,7.82959 -15.46177,18.00926 -23.50315,23.15327 C 420.55918,163.62283 398.92942,171 391.99217,171 c -5.45363,0 -14.63896,-2.70032 -21.40239,-6.29192 L 364.5,161.47421 340,179.0595 c -13.475,9.67191 -31.25,22.23768 -39.5,27.92394 -8.25,5.68626 -17.7,12.42713 -21,14.97971 -7.3702,5.70092 -7.31676,5.67511 -11,5.31477 z M 175,211 c 0,-0.5701 -2.96802,-1 -6.90405,-1 -6.82119,0 -7.0162,-0.0757 -16.25,-6.30749 -9.9631,-6.72399 -66.672319,-47.24613 -68.336441,-48.83048 -0.544771,-0.51866 1.024201,-0.23219 3.486603,0.6366 6.408039,2.26089 18.601248,5.21153 24.932658,6.03346 4.68734,0.60851 6.59939,1.62101 14,7.41352 4.71418,3.68982 13.74168,10.49903 20.06112,15.13158 6.31943,4.63254 17.28895,12.81031 24.37669,18.17281 l 12.8868,9.75 -4.12669,0 C 176.85701,212 175,211.55 175,211 z m 196.20643,-55.29191 c -6.69003,-3.85987 -7.25123,-4.43281 -6.78188,-6.92368 0.85524,-4.53885 7.49265,-14.69917 27.21157,-41.65451 0.94209,-1.28782 5.2433,1.42023 7.27348,4.57941 3.02068,4.70049 15.14939,31.88477 15.7969,35.40587 0.37475,2.03784 -0.14687,3.05764 -2.36279,4.61941 -5.55274,3.91356 -11.2665,6.23702 -16.5197,6.71763 -18.18911,1.66412 -16.68682,1.83158 -24.61758,-2.74413 z m 51.69265,-18.32969 c -0.7402,-0.89189 -6.11232,-10.00439 -11.93805,-20.25 -10.51136,-18.486182 -10.57504,-18.637932 -8.34046,-19.876892 3.04137,-1.686291 30.29725,-6.973278 33.16783,-6.433766 3.61926,0.680221 5.21106,5.069463 5.21601,14.382598 0.004,7.4002 -0.44173,9.41109 -4.11223,18.5552 -5.22664,13.02084 -10.35179,18.01037 -13.9931,13.62286 z m -55.3337,-8.26881 c 2.23595,-1.01557 5.83595,-3.34135 8,-5.16841 3.31672,-2.80023 3.15531,-2.50681 -1.02779,1.86845 -3.87235,4.05024 -5.62965,5.18555 -8,5.16841 -3.02083,-0.0218 -3.01516,-0.0322 1.02779,-1.86845 z M 357.06468,92.647176 C 348.99916,91.55029 348.596,91.374057 347.8683,88.627116 347.22172,86.186381 349.74221,67.89087 351.54676,61.926285 352.52556,58.691052 356.05834,56 359.32673,56 c 4.29943,0 7.55722,2.948751 18.22925,16.5 14.85804,18.866611 14.95522,20.493456 1.2254,20.513655 -5.10476,0.0075 -10.18138,0.186239 -11.28138,0.397176 -1.1,0.210936 -5.79589,-0.132708 -10.43532,-0.763655 z m 43.29993,-1.139408 c -1.42564,-3.715163 5.37159,-28.189875 10.76527,-38.762359 4.55292,-8.92445 10.22104,-6.80585 19.21364,7.181566 3.20435,4.984149 6.32486,10.38352 6.93449,11.998603 1.53213,4.059084 -0.084,9.867775 -3.43794,12.356602 -2.2389,1.661396 -27.62196,8.645186 -31.62145,8.700196 -0.70477,0.0097 -1.53907,-0.65388 -1.85401,-1.474608 z M 386.00572,76.507747 c -3.85581,-5.220738 -9.46827,-13.446629 -12.47212,-18.279757 -6.03252,-9.706186 -6.22922,-11.608163 -1.7048,-16.484319 3.19985,-3.448605 7.71911,-4.732004 16.6712,-4.734356 8.18924,-0.0022 13.03385,2.285227 14.13536,6.673998 1.16592,4.645389 -2.89023,33.330855 -5.66546,40.066687 -0.50986,1.2375 -1.608,2.25 -2.44031,2.25 -0.83231,0 -4.66805,-4.271514 -8.52387,-9.492253 z"
         style="fill:#d76654" />
      <path
         inkscape:connector-curvature="0"
         id="path3067"
         d="M 268.5,227.27273 C 259.41801,226.39994 257,225.80406 257,224.43873 257,223.57075 256.00824,223 254.5,223 c -1.55556,0 -2.5,-0.56667 -2.5,-1.5 0,-0.93333 -0.94444,-1.5 -2.5,-1.5 -1.375,0 -2.5,-0.45 -2.5,-1 0,-0.55 -1.125,-1 -2.5,-1 -1.375,0 -2.5,-0.45 -2.5,-1 0,-0.55 -1.125,-1 -2.5,-1 -1.375,0 -2.5,-0.45 -2.5,-1 0,-0.55 -1.8,-1 -4,-1 -2.88889,0 -4,-0.41667 -4,-1.5 0,-0.93333 -0.94444,-1.5 -2.5,-1.5 -1.55556,0 -2.5,-0.56667 -2.5,-1.5 0,-0.93333 -0.94444,-1.5 -2.5,-1.5 -1.375,0 -2.5,-0.45 -2.5,-1 0,-0.55 -1.125,-1 -2.5,-1 -1.55556,0 -2.5,-0.56667 -2.5,-1.5 0,-0.825 -0.81793,-1.5 -1.81762,-1.5 -1.36517,0 -2.38888,-1.7425 -4.11249,-7 -1.26218,-3.85 -2.6585,-7 -3.10293,-7 -0.44443,0 -1.11462,-1.39582 -1.48932,-3.10182 -0.3747,-1.706 -1.60854,-4.02908 -2.74186,-5.1624 -1.31214,-1.31214 -2.22979,-3.82163 -2.52646,-6.90912 l -0.46588,-4.84855 5.87828,0.46652 c 3.23305,0.25658 10.26578,0.73866 15.62828,1.07128 l 9.75,0.60476 0,-6.95417 0,-6.95418 8.75,-0.6196 c 44.32429,-3.13867 77.48748,-5.89863 87.1974,-7.25689 l 4.44741,-0.62212 -3.08674,3.89314 c -6.22307,7.84885 -37.21795,37.19843 -50.52712,47.845 -10.42294,8.33775 -13.43886,11.25542 -12.63529,12.22366 1.50763,1.81658 3.36742,0.72932 33.85434,-19.79162 27.57468,-18.56069 54.70753,-39.71287 54.22348,-42.27145 -0.61484,-3.24989 2.1655,-2.53544 7.57055,1.94538 3.13828,2.60165 9.08097,6.35295 13.20597,8.33623 6.48845,3.1196 8.66841,3.65265 16.163,3.9522 10.72803,0.42879 17.09634,-1.27949 25.88378,-6.94325 14.99042,-9.66175 25.75927,-24.45163 29.55571,-40.59168 C 445.74091,108.22013 444.99292,88.8341 442.04711,77 434.22809,45.588858 414.39174,29.022647 386,30.192599 378.28612,30.510468 375.37192,31.10251 370.5,33.341542 363.88817,36.380199 356.46952,43.063365 352.00828,50 c -4.24691,6.603372 -9.61284,21.242945 -11.55124,31.514596 -1.9566,10.368086 -1.55814,32.905784 0.71312,40.335634 1.23747,4.04808 1.30558,3.48384 0.98049,-8.12371 C 341.68461,97.086079 340.29283,98 366.10006,98 c 23.57453,0 23.92668,0.150178 19.57837,8.34943 -3.66296,6.90693 -7.78066,11.15364 -18.04775,18.61317 -4.73697,3.44164 -8.40225,6.59799 -8.14507,7.01411 0.54325,0.879 -9.3526,3.02329 -13.95239,3.02329 -1.72327,0 -3.56072,-0.42465 -4.08322,-0.94367 -0.59576,-0.59179 -14.37397,0.14128 -36.95,1.96592 -19.8,1.60028 -45,3.61577 -56,4.47888 l -20,1.56929 -72.63766,-5.99253 c -39.95072,-3.29588 -74.713217,-6.51515 -77.250002,-7.15392 L 74,127.76257 l 0,-4.7082 0,-4.70821 7.75,-2.64028 c 17.19016,-5.85638 22.40014,-6.62006 86.75,-12.7158 66.01265,-6.253261 77.73434,-6.812254 104.31261,-4.974546 17.46746,1.207758 51.04565,4.788306 56.68739,6.044756 2.2,0.48995 4.49622,0.90182 5.10272,0.91526 0.69481,0.0154 1.35948,-3.95203 1.79685,-10.72555 1.69065,-26.183003 10.85438,-50.115743 23.59706,-61.627991 4.2565,-3.845488 15.13516,-9.619766 18.12625,-9.62122 0.89259,-4.34e-4 3.81759,-0.975977 6.5,-2.167873 3.59177,-1.595955 7.51259,-2.282891 14.87712,-2.606499 36.20448,-1.590878 59.55665,24.276222 64.00022,70.892778 1.37466,14.421295 -3.51249,34.064535 -11.51476,46.282005 -5.12827,7.82959 -15.46177,18.00926 -23.50315,23.15327 C 420.55918,163.62283 398.92942,171 391.99217,171 c -5.47466,0 -14.72791,-2.7259 -21.5497,-6.34829 l -6.15699,-3.26937 -22.89274,16.44376 C 328.80173,186.87017 309.725,200.36213 299,207.80822 c -10.725,7.4461 -21.3,14.93661 -23.5,16.64558 -2.83366,2.20121 -4.87476,3.02317 -7,2.81893 z m 102.70643,-71.56464 c -6.69003,-3.85987 -7.25123,-4.43281 -6.78188,-6.92368 0.85524,-4.53885 7.49265,-14.69917 27.21157,-41.65451 0.94209,-1.28782 5.2433,1.42023 7.27348,4.57941 3.02068,4.70049 15.14939,31.88477 15.7969,35.40587 0.37475,2.03784 -0.14687,3.05764 -2.36279,4.61941 -5.55274,3.91356 -11.2665,6.23702 -16.5197,6.71763 -18.18911,1.66412 -16.68682,1.83158 -24.61758,-2.74413 z m 51.69265,-18.32969 c -0.7402,-0.89189 -6.11232,-10.00439 -11.93805,-20.25 -10.51136,-18.486182 -10.57504,-18.637932 -8.34046,-19.876892 3.04137,-1.686291 30.29725,-6.973278 33.16783,-6.433766 3.61926,0.680221 5.21106,5.069463 5.21601,14.382598 0.004,7.4002 -0.44173,9.41109 -4.11223,18.5552 -5.22664,13.02084 -10.35179,18.01037 -13.9931,13.62286 z m -55.3337,-8.26881 c 2.23595,-1.01557 5.83595,-3.34135 8,-5.16841 3.31672,-2.80023 3.15531,-2.50681 -1.02779,1.86845 -3.87235,4.05024 -5.62965,5.18555 -8,5.16841 -3.02083,-0.0218 -3.01516,-0.0322 1.02779,-1.86845 z M 357.06468,92.647176 C 348.99916,91.55029 348.596,91.374057 347.8683,88.627116 347.22172,86.186381 349.74221,67.89087 351.54676,61.926285 352.52556,58.691052 356.05834,56 359.32673,56 c 4.29943,0 7.55722,2.948751 18.22925,16.5 14.85804,18.866611 14.95522,20.493456 1.2254,20.513655 -5.10476,0.0075 -10.18138,0.186239 -11.28138,0.397176 -1.1,0.210936 -5.79589,-0.132708 -10.43532,-0.763655 z m 43.29993,-1.139408 c -1.42564,-3.715163 5.37159,-28.189875 10.76527,-38.762359 4.55292,-8.92445 10.22104,-6.80585 19.21364,7.181566 3.20435,4.984149 6.32486,10.38352 6.93449,11.998603 1.53213,4.059084 -0.084,9.867775 -3.43794,12.356602 -2.2389,1.661396 -27.62196,8.645186 -31.62145,8.700196 -0.70477,0.0097 -1.53907,-0.65388 -1.85401,-1.474608 z M 386.00572,76.507747 c -3.85581,-5.220738 -9.46827,-13.446629 -12.47212,-18.279757 -6.03252,-9.706186 -6.22922,-11.608163 -1.7048,-16.484319 3.19985,-3.448605 7.71911,-4.732004 16.6712,-4.734356 8.18924,-0.0022 13.03385,2.285227 14.13536,6.673998 1.16592,4.645389 -2.89023,33.330855 -5.66546,40.066687 -0.50986,1.2375 -1.608,2.25 -2.44031,2.25 -0.83231,0 -4.66805,-4.271514 -8.52387,-9.492253 z"
         style="fill:#d65946" />
      <path
         inkscape:connector-curvature="0"
         id="path3065"
         d="m 300,202 c 0,-0.55 -1.125,-1 -2.5,-1 -1.375,0 -2.5,-0.42011 -2.5,-0.93358 0,-0.51347 -1.18981,-1.07597 -2.64402,-1.25 -2.24474,-0.26864 -0.0676,-2.08926 14.4171,-12.05618 20.90136,-14.38224 45.37124,-34.22058 44.62109,-36.17543 -1.26802,-3.30441 2.12525,-2.39967 7.39986,1.97301 3.13828,2.60165 9.08097,6.35295 13.20597,8.33623 6.48845,3.1196 8.66841,3.65265 16.163,3.9522 10.72803,0.42879 17.09634,-1.27949 25.88378,-6.94325 14.99042,-9.66175 25.75927,-24.45163 29.55571,-40.59168 C 445.74091,108.22013 444.99292,88.8341 442.04711,77 434.22809,45.588858 414.39174,29.022647 386,30.192599 378.28612,30.510468 375.37192,31.10251 370.5,33.341542 363.88817,36.380199 356.46952,43.063365 352.00828,50 c -4.24691,6.603372 -9.61284,21.242945 -11.55124,31.514596 -1.9566,10.368086 -1.55814,32.905784 0.71312,40.335634 1.23747,4.04808 1.30558,3.48384 0.98049,-8.12371 C 341.68461,97.086079 340.29283,98 366.10006,98 c 23.57453,0 23.92668,0.150178 19.57837,8.34943 -3.66296,6.90693 -7.78066,11.15364 -18.04775,18.61317 -4.73697,3.44164 -8.40225,6.59799 -8.14507,7.01411 0.54325,0.879 -9.3526,3.02329 -13.95239,3.02329 -1.72327,0 -3.58978,-0.45656 -4.1478,-1.01458 -0.68612,-0.68612 -18.97446,0.45139 -56.48903,3.51351 0,0 -36.92146,4.53176 -55.47444,4.5281 -24.56922,-0.005 -73.46097,-6.02544 -73.46097,-6.02544 C 115.55744,132.6876 80.5875,129.47678 78.25,128.86644 74.00939,127.75918 74,127.74633 74,123.05144 l 0,-4.70528 7.75,-2.64028 c 17.212515,-5.864 22.38172,-6.62146 86.75,-12.71188 40.63914,-3.845204 67.79161,-5.964279 76.5,-5.970328 20.0605,-0.01394 56.20083,2.908406 80.42614,6.503338 5.45937,0.81014 10.00559,1.47299 10.10271,1.47299 0.0971,0 0.48894,-4.8375 0.87072,-10.75 1.69065,-26.183003 10.85438,-50.115743 23.59706,-61.627991 4.2565,-3.845488 15.13516,-9.619766 18.12625,-9.62122 0.89259,-4.34e-4 3.81759,-0.975977 6.5,-2.167873 3.59177,-1.595955 7.51259,-2.282891 14.87712,-2.606499 36.20448,-1.590878 59.55665,24.276222 64.00022,70.892778 1.37466,14.421295 -3.51249,34.064535 -11.51476,46.282005 -5.12827,7.82959 -15.46177,18.00926 -23.50315,23.15327 C 420.55918,163.62283 398.92942,171 391.99217,171 c -5.47969,0 -14.72995,-2.72698 -21.5691,-6.35859 l -6.17639,-3.27968 -29.11967,20.81914 C 312.73633,198.18911 305.31326,203 303.00367,203 301.35165,203 300,202.55 300,202 z m -19,-7.87756 C 281,193.5051 279.875,193 278.5,193 c -1.375,0 -2.5,-0.45 -2.5,-1 0,-0.55 -1.125,-1 -2.5,-1 -1.375,0 -2.5,-0.45 -2.5,-1 0,-0.55 -1.125,-1 -2.5,-1 -1.375,0 -2.5,-0.45 -2.5,-1 0,-0.55 -1.125,-1 -2.5,-1 -1.375,0 -2.5,-0.45 -2.5,-1 0,-0.55 -0.9,-1 -2,-1 -1.1,0 -2,-0.45 -2,-1 0,-0.55 -1.125,-1 -2.5,-1 -1.375,0 -2.5,-0.45 -2.5,-1 0,-0.55 -1.125,-1 -2.5,-1 -1.55556,0 -2.5,-0.56667 -2.5,-1.5 0,-0.93333 -0.94444,-1.5 -2.5,-1.5 -1.375,0 -2.5,-0.45 -2.5,-1 0,-0.55 -1.125,-1 -2.5,-1 -1.375,0 -2.5,-0.45 -2.5,-1 0,-0.55 -1.125,-1 -2.5,-1 -1.375,0 -2.5,-0.42243 -2.5,-0.93873 0,-1.0239 1.50586,-1.25633 23,-3.55002 7.975,-0.85103 15.9625,-1.7846 17.75,-2.0746 l 3.25,-0.52728 0,-6.34114 0,-6.34114 4.25,-0.57062 c 2.3375,-0.31384 7.85,-0.84402 12.25,-1.17818 4.4,-0.33417 14.25312,-1.26287 21.89582,-2.06378 7.6427,-0.80091 14.06883,-1.28319 14.28029,-1.07173 0.72435,0.72435 -27.64087,29.41102 -35.91218,36.31915 C 281.3965,195.15592 281,195.44108 281,194.12244 z m 90.20643,-38.41435 c -6.69003,-3.85987 -7.25123,-4.43281 -6.78188,-6.92368 0.85524,-4.53885 7.49265,-14.69917 27.21157,-41.65451 0.94209,-1.28782 5.2433,1.42023 7.27348,4.57941 3.02068,4.70049 15.14939,31.88477 15.7969,35.40587 0.37475,2.03784 -0.14687,3.05764 -2.36279,4.61941 -5.55274,3.91356 -11.2665,6.23702 -16.5197,6.71763 -18.18911,1.66412 -16.68682,1.83158 -24.61758,-2.74413 z m 51.69265,-18.32969 c -0.7402,-0.89189 -6.11232,-10.00439 -11.93805,-20.25 -10.51136,-18.486182 -10.57504,-18.637932 -8.34046,-19.876892 3.04137,-1.686291 30.29725,-6.973278 33.16783,-6.433766 3.61926,0.680221 5.21106,5.069463 5.21601,14.382598 0.004,7.4002 -0.44173,9.41109 -4.11223,18.5552 -5.22664,13.02084 -10.35179,18.01037 -13.9931,13.62286 z m -55.3337,-8.26881 c 2.23595,-1.01557 5.83595,-3.34135 8,-5.16841 3.31672,-2.80023 3.15531,-2.50681 -1.02779,1.86845 -3.87235,4.05024 -5.62965,5.18555 -8,5.16841 -3.02083,-0.0218 -3.01516,-0.0322 1.02779,-1.86845 z M 357.06468,92.647176 C 348.99916,91.55029 348.596,91.374057 347.8683,88.627116 347.22172,86.186381 349.74221,67.89087 351.54676,61.926285 352.52556,58.691052 356.05834,56 359.32673,56 c 4.29943,0 7.55722,2.948751 18.22925,16.5 14.85804,18.866611 14.95522,20.493456 1.2254,20.513655 -5.10476,0.0075 -10.18138,0.186239 -11.28138,0.397176 -1.1,0.210936 -5.79589,-0.132708 -10.43532,-0.763655 z m 43.29993,-1.139408 c -1.42564,-3.715163 5.37159,-28.189875 10.76527,-38.762359 4.55292,-8.92445 10.22104,-6.80585 19.21364,7.181566 3.20435,4.984149 6.32486,10.38352 6.93449,11.998603 1.53213,4.059084 -0.084,9.867775 -3.43794,12.356602 -2.2389,1.661396 -27.62196,8.645186 -31.62145,8.700196 -0.70477,0.0097 -1.53907,-0.65388 -1.85401,-1.474608 z M 386.00572,76.507747 c -3.85581,-5.220738 -9.46827,-13.446629 -12.47212,-18.279757 -6.03252,-9.706186 -6.22922,-11.608163 -1.7048,-16.484319 3.19985,-3.448605 7.71911,-4.732004 16.6712,-4.734356 8.18924,-0.0022 13.03385,2.285227 14.13536,6.673998 1.16592,4.645389 -2.89023,33.330855 -5.66546,40.066687 -0.50986,1.2375 -1.608,2.25 -2.44031,2.25 -0.83231,0 -4.66805,-4.271514 -8.52387,-9.492253 z"
         style="fill:#e64a38"
         sodipodi:nodetypes="ssssssssssssssssssssssssssssscssssssssssssssscsssssssssssssssssssssssssscccssssssssssssssssssssscssccsssssssssssssssssssssss" />
      <path
         inkscape:connector-curvature="0"
         id="path3063"
         d="m 300,202 c 0,-0.55 -1.125,-1 -2.5,-1 -1.375,0 -2.5,-0.42011 -2.5,-0.93358 0,-0.51347 -1.18981,-1.07597 -2.64402,-1.25 -2.24474,-0.26864 -0.0676,-2.08926 14.4171,-12.05618 20.90136,-14.38224 45.37124,-34.22058 44.62109,-36.17543 -1.26802,-3.30441 2.12525,-2.39967 7.39986,1.97301 3.13828,2.60165 9.08097,6.35295 13.20597,8.33623 6.48845,3.1196 8.66841,3.65265 16.163,3.9522 10.72803,0.42879 17.09634,-1.27949 25.88378,-6.94325 14.99042,-9.66175 25.75927,-24.45163 29.55571,-40.59168 C 445.74091,108.22013 444.99292,88.8341 442.04711,77 434.22809,45.588858 414.39174,29.022647 386,30.192599 378.28612,30.510468 375.37192,31.10251 370.5,33.341542 363.88817,36.380199 356.46952,43.063365 352.00828,50 c -4.24691,6.603372 -9.61284,21.242945 -11.55124,31.514596 -1.9566,10.368086 -1.55814,32.905784 0.71312,40.335634 1.23747,4.04808 1.30558,3.48384 0.98049,-8.12371 C 341.68461,97.086079 340.29283,98 366.10006,98 c 23.57453,0 23.92668,0.150178 19.57837,8.34943 -3.66296,6.90693 -7.78066,11.15364 -18.04775,18.61317 -4.73697,3.44164 -8.40225,6.59799 -8.14507,7.01411 0.54325,0.879 -9.3526,3.02329 -13.95239,3.02329 -1.72327,0 -3.58978,-0.45656 -4.1478,-1.01458 -0.68612,-0.68612 -19.05561,0.45801 -56.73967,3.53397 l -55.72507,4.54856 -17.51037,-1.53398 C 201.7796,139.69029 193.69745,139 193.44997,139 193.20249,139 193,130.45857 193,120.01905 c 0,-18.88053 0.0119,-18.98339 2.25,-19.44246 6.34472,-1.301421 38.09814,-3.575697 49.83648,-3.569443 20.08965,0.0107 56.2528,2.945477 80.33966,6.519863 5.45937,0.81014 10.00559,1.47299 10.10271,1.47299 0.0971,0 0.48894,-4.8375 0.87072,-10.75 1.69065,-26.183003 10.85438,-50.115743 23.59706,-61.627991 4.2565,-3.845488 15.13516,-9.619766 18.12625,-9.62122 0.89259,-4.34e-4 3.81759,-0.975977 6.5,-2.167873 3.59177,-1.595955 7.51259,-2.282891 14.87712,-2.606499 36.20448,-1.590878 59.55665,24.276222 64.00022,70.892778 1.37466,14.421295 -3.51249,34.064535 -11.51476,46.282005 -5.12827,7.82959 -15.46177,18.00926 -23.50315,23.15327 C 420.55918,163.62283 398.92942,171 391.99217,171 c -5.47969,0 -14.72995,-2.72698 -21.5691,-6.35859 l -6.17639,-3.27968 -29.11967,20.81914 C 312.73633,198.18911 305.31326,203 303.00367,203 301.35165,203 300,202.55 300,202 z m -19,-7.87756 C 281,193.5051 279.875,193 278.5,193 c -1.375,0 -2.5,-0.45 -2.5,-1 0,-0.55 -1.125,-1 -2.5,-1 -1.375,0 -2.5,-0.45 -2.5,-1 0,-0.55 -1.125,-1 -2.5,-1 -1.375,0 -2.5,-0.45 -2.5,-1 0,-0.55 -1.125,-1 -2.5,-1 -1.375,0 -2.5,-0.45 -2.5,-1 0,-0.55 -0.9,-1 -2,-1 -1.1,0 -2,-0.45 -2,-1 0,-0.55 -1.125,-1 -2.5,-1 -1.375,0 -2.5,-0.45 -2.5,-1 0,-0.55 -1.125,-1 -2.5,-1 -1.55556,0 -2.5,-0.56667 -2.5,-1.5 0,-0.93333 -0.94444,-1.5 -2.5,-1.5 -1.375,0 -2.5,-0.45 -2.5,-1 0,-0.55 -1.125,-1 -2.5,-1 -1.375,0 -2.5,-0.45 -2.5,-1 0,-0.55 -1.125,-1 -2.5,-1 -1.375,0 -2.5,-0.42243 -2.5,-0.93873 0,-1.0239 1.50586,-1.25633 23,-3.55002 7.975,-0.85103 15.9625,-1.7846 17.75,-2.0746 l 3.25,-0.52728 0,-6.34114 0,-6.34114 4.25,-0.57062 c 2.3375,-0.31384 7.85,-0.84402 12.25,-1.17818 4.4,-0.33417 14.25312,-1.26287 21.89582,-2.06378 7.6427,-0.80091 14.06883,-1.28319 14.28029,-1.07173 0.72435,0.72435 -27.64087,29.41102 -35.91218,36.31915 C 281.3965,195.15592 281,195.44108 281,194.12244 z m 90.20643,-38.41435 c -6.69003,-3.85987 -7.25123,-4.43281 -6.78188,-6.92368 0.85524,-4.53885 7.49265,-14.69917 27.21157,-41.65451 0.94209,-1.28782 5.2433,1.42023 7.27348,4.57941 3.02068,4.70049 15.14939,31.88477 15.7969,35.40587 0.37475,2.03784 -0.14687,3.05764 -2.36279,4.61941 -5.55274,3.91356 -11.2665,6.23702 -16.5197,6.71763 -18.18911,1.66412 -16.68682,1.83158 -24.61758,-2.74413 z m 51.69265,-18.32969 c -0.7402,-0.89189 -6.11232,-10.00439 -11.93805,-20.25 -10.51136,-18.486182 -10.57504,-18.637932 -8.34046,-19.876892 3.04137,-1.686291 30.29725,-6.973278 33.16783,-6.433766 3.61926,0.680221 5.21106,5.069463 5.21601,14.382598 0.004,7.4002 -0.44173,9.41109 -4.11223,18.5552 -5.22664,13.02084 -10.35179,18.01037 -13.9931,13.62286 z m -55.3337,-8.26881 c 2.23595,-1.01557 5.83595,-3.34135 8,-5.16841 3.31672,-2.80023 3.15531,-2.50681 -1.02779,1.86845 -3.87235,4.05024 -5.62965,5.18555 -8,5.16841 -3.02083,-0.0218 -3.01516,-0.0322 1.02779,-1.86845 z M 357.06468,92.647176 C 348.99916,91.55029 348.596,91.374057 347.8683,88.627116 347.22172,86.186381 349.74221,67.89087 351.54676,61.926285 352.52556,58.691052 356.05834,56 359.32673,56 c 4.29943,0 7.55722,2.948751 18.22925,16.5 14.85804,18.866611 14.95522,20.493456 1.2254,20.513655 -5.10476,0.0075 -10.18138,0.186239 -11.28138,0.397176 -1.1,0.210936 -5.79589,-0.132708 -10.43532,-0.763655 z m 43.29993,-1.139408 c -1.42564,-3.715163 5.37159,-28.189875 10.76527,-38.762359 4.55292,-8.92445 10.22104,-6.80585 19.21364,7.181566 3.20435,4.984149 6.32486,10.38352 6.93449,11.998603 1.53213,4.059084 -0.084,9.867775 -3.43794,12.356602 -2.2389,1.661396 -27.62196,8.645186 -31.62145,8.700196 -0.70477,0.0097 -1.53907,-0.65388 -1.85401,-1.474608 z M 386.00572,76.507747 c -3.85581,-5.220738 -9.46827,-13.446629 -12.47212,-18.279757 -6.03252,-9.706186 -6.22922,-11.608163 -1.7048,-16.484319 3.19985,-3.448605 7.71911,-4.732004 16.6712,-4.734356 8.18924,-0.0022 13.03385,2.285227 14.13536,6.673998 1.16592,4.645389 -2.89023,33.330855 -5.66546,40.066687 -0.50986,1.2375 -1.608,2.25 -2.44031,2.25 -0.83231,0 -4.66805,-4.271514 -8.52387,-9.492253 z"
         style="fill:#87b726" />
      <path
         inkscape:connector-curvature="0"
         id="path3061"
         d="m 300,202 c 0,-0.55 -1.125,-1 -2.5,-1 -1.375,0 -2.5,-0.42011 -2.5,-0.93358 0,-0.51347 -1.18981,-1.07597 -2.64402,-1.25 -2.24474,-0.26864 -0.0676,-2.08926 14.4171,-12.05618 20.90136,-14.38224 45.37124,-34.22058 44.62109,-36.17543 -1.23134,-3.20882 1.74932,-2.20584 7.7217,2.59832 22.23012,17.88181 42.40832,17.01965 65.35669,-2.79253 7.0173,-6.0583 12.01976,-13.26433 18.38725,-26.48682 9.05596,-18.80523 9.97206,-28.483759 4.67325,-49.372278 C 444.48417,62.512415 442.29932,58.413726 434.5863,50.243903 420.34507,35.15924 398.39887,26.809693 380.88504,29.812981 c -8.28588,1.420871 -14.76906,4.543453 -24.73438,11.913156 -6.85689,5.070906 -7.23859,5.231302 -5.51812,2.318774 3.22242,-5.455119 10.38219,-12.969234 14.85561,-15.590834 4.2508,-2.491134 14.21156,-6.244006 23.97978,-9.034756 6.57092,-1.87729 19.2501,-1.802704 26.88773,0.158169 22.31346,5.728728 36.37764,21.632304 43.70631,49.42251 8.35199,31.67056 1.31648,60.40856 -19.55176,79.86331 -3.75411,3.49982 -9.16666,7.86084 -12.0279,9.69116 -5.57944,3.56912 -19.00796,8.68226 -29.34187,11.17241 -8.6118,2.07518 -17.05491,0.67954 -27.25861,-4.50584 l -7.61816,-3.87145 -29.12816,20.8252 C 312.73802,198.1879 305.31328,203 303.00367,203 301.35165,203 300,202.55 300,202 z m -19,-7.87756 C 281,193.5051 279.875,193 278.5,193 c -1.375,0 -2.5,-0.45 -2.5,-1 0,-0.55 -1.125,-1 -2.5,-1 -1.375,0 -2.5,-0.45 -2.5,-1 0,-0.55 -1.125,-1 -2.5,-1 -1.375,0 -2.5,-0.45 -2.5,-1 0,-0.55 -1.125,-1 -2.5,-1 -1.375,0 -2.5,-0.45 -2.5,-1 0,-0.55 -0.9,-1 -2,-1 -1.1,0 -2,-0.45 -2,-1 0,-0.55 -1.125,-1 -2.5,-1 -1.375,0 -2.5,-0.45 -2.5,-1 0,-0.55 -1.125,-1 -2.5,-1 -1.55556,0 -2.5,-0.56667 -2.5,-1.5 0,-0.93333 -0.94444,-1.5 -2.5,-1.5 -1.375,0 -2.5,-0.45 -2.5,-1 0,-0.55 -1.125,-1 -2.5,-1 -1.375,0 -2.5,-0.45 -2.5,-1 0,-0.55 -1.125,-1 -2.5,-1 -1.375,0 -2.5,-0.42243 -2.5,-0.93873 0,-1.0239 1.50586,-1.25633 23,-3.55002 7.975,-0.85103 15.9625,-1.7846 17.75,-2.0746 l 3.25,-0.52728 0,-6.34114 0,-6.34114 4.25,-0.57062 c 2.3375,-0.31384 7.85,-0.84402 12.25,-1.17818 4.4,-0.33417 14.25312,-1.26287 21.89582,-2.06378 7.6427,-0.80091 14.06883,-1.28319 14.28029,-1.07173 0.72435,0.72435 -27.64087,29.41102 -35.91218,36.31915 C 281.3965,195.15592 281,195.44108 281,194.12244 z m -71,-53.67621 c -7.425,-0.70556 -14.2875,-1.3196 -15.25,-1.36453 -1.60233,-0.0748 -1.75,-1.68334 -1.75,-19.06265 0,-18.88053 0.0119,-18.98339 2.25,-19.44246 6.34472,-1.301421 38.09814,-3.575697 49.83648,-3.569443 24.49174,0.01305 86.62487,5.842323 90.98327,8.535963 0.51164,0.31621 0.93025,2.26572 0.93025,4.33225 0,6.6505 2.05061,15.1104 4.55837,18.8058 1.3429,1.97886 2.44163,3.95214 2.44163,4.38506 0,0.43292 0.7875,0.99293 1.75,1.24445 1.16313,0.30396 0.89485,0.49623 -0.8,0.57333 -1.4025,0.0638 -3.00678,-0.34078 -3.56506,-0.89906 -0.68675,-0.68675 -18.89995,0.44529 -56.31085,3.5 -30.41269,2.48328 -56.70841,4.4541 -58.43494,4.37959 -1.72653,-0.0745 -9.21415,-0.71275 -16.63915,-1.4183 z m 156.85484,-10.51618 c 1.29516,-0.51874 3.77016,-1.91694 5.5,-3.10711 l 3.14516,-2.16393 -2.93709,3.17049 c -1.88851,2.03859 -3.85209,3.14787 -5.5,3.10711 l -2.56291,-0.0634 2.35484,-0.94318 z"
         style="fill:#d14933" />
      <path
         inkscape:connector-curvature="0"
         id="path3059"
         d="M 339,178.06809 C 339,177.48064 337.65,177 336,177 c -2,0 -3,-0.5 -3,-1.5 0,-0.93333 -0.94444,-1.5 -2.5,-1.5 -1.375,0 -2.5,-0.41949 -2.5,-0.9322 0,-0.51271 5.35681,-5.35021 11.90402,-10.75 8.34704,-6.88419 11.77114,-10.31556 11.45932,-11.48364 -0.90529,-3.39125 1.53606,-2.65154 7.75253,2.34897 22.23012,17.88181 42.40832,17.01965 65.35669,-2.79253 7.0173,-6.0583 12.01976,-13.26433 18.38725,-26.48682 9.05596,-18.80523 9.97206,-28.483759 4.67325,-49.372278 C 444.48417,62.512415 442.29932,58.413726 434.5863,50.243903 420.34507,35.15924 398.39887,26.809693 380.88504,29.812981 c -8.28588,1.420871 -14.76906,4.543453 -24.73438,11.913156 -6.85689,5.070906 -7.23859,5.231302 -5.51812,2.318774 3.22242,-5.455119 10.38219,-12.969234 14.85561,-15.590834 4.2508,-2.491134 14.21156,-6.244006 23.97978,-9.034756 6.57092,-1.87729 19.2501,-1.802704 26.88773,0.158169 22.31346,5.728728 36.37764,21.632304 43.70631,49.42251 8.35199,31.67056 1.31648,60.40856 -19.55176,79.86331 -9.05039,8.43737 -15.39954,12.36911 -26.12019,16.17506 -20.80944,7.38758 -28.29456,7.40618 -42.65821,0.10601 l -7.7682,-3.94809 -9.2318,6.67105 C 339.69972,178.72976 339,179.18347 339,178.06809 z m -28.25,-12.73037 c 0.6875,-0.27741 1.8125,-0.27741 2.5,0 0.6875,0.27741 0.125,0.50439 -1.25,0.50439 -1.375,0 -1.9375,-0.22698 -1.25,-0.50439 z m 11.27931,-12.06867 c -0.0239,-2.63958 0.43679,-3.34793 2.51726,-3.87009 3.79256,-0.95188 3.93796,0.0338 0.55395,3.75557 l -3.04189,3.34547 -0.0293,-3.23095 z M 218.75,141.26496 214,140.89042 l 0,-20.82858 c 0,-20.741563 0.009,-20.831281 2.25,-21.475821 4.96179,-1.42733 36.12753,-1.812816 53.75,-0.664827 19.6205,1.278146 48.72447,4.386288 59.82424,6.388898 6.64967,1.19973 6.67679,1.21809 6.93806,4.69717 0.65982,8.78599 2.47203,16.24923 4.76667,19.63057 1.35907,2.0027 2.47103,3.99547 2.47103,4.42839 0,0.43292 0.7875,0.99293 1.75,1.24445 1.16313,0.30396 0.89485,0.49623 -0.8,0.57333 -1.4025,0.0638 -3.01347,-0.34747 -3.57992,-0.91392 -0.70657,-0.70657 -18.49798,0.3923 -56.66719,3.5 -30.6005,2.49145 -56.88953,4.44881 -58.42008,4.34967 -1.53055,-0.0991 -4.92031,-0.34879 -7.53281,-0.55479 z m 148.10484,-11.33491 c 1.29516,-0.51874 3.77016,-1.91694 5.5,-3.10711 l 3.14516,-2.16393 -2.93709,3.17049 c -1.88851,2.03859 -3.85209,3.14787 -5.5,3.10711 l -2.56291,-0.0634 2.35484,-0.94318 z"
         style="fill:#d03b24" />
      <path
         inkscape:connector-curvature="0"
         id="path3057"
         d="m 384,169.92576 c -2.475,-0.47031 -7.98098,-2.61932 -12.23551,-4.77559 l -7.7355,-3.92048 -4.7613,3.38515 C 354.46471,168.02964 352,168.83852 352,167 c 0,-0.55 -0.675,-1 -1.5,-1 -0.825,0 -1.5,-0.42648 -1.5,-0.94774 0,-0.52126 -2.32797,-1.08376 -5.17327,-1.25 L 338.65346,163.5 345.25551,158 c 4.49264,-3.7427 6.45206,-6.03225 6.1326,-7.16584 -0.95802,-3.39944 1.51664,-2.64723 7.72776,2.34897 22.23012,17.88181 42.40832,17.01965 65.35669,-2.79253 7.0173,-6.0583 12.01976,-13.26433 18.38725,-26.48682 9.05596,-18.80523 9.97206,-28.483759 4.67325,-49.372278 C 444.48417,62.512415 442.29932,58.413726 434.5863,50.243903 420.34507,35.15924 398.39887,26.809693 380.88504,29.812981 c -8.28588,1.420871 -14.76906,4.543453 -24.73438,11.913156 -6.85689,5.070906 -7.23859,5.231302 -5.51812,2.318774 3.22242,-5.455119 10.38219,-12.969234 14.85561,-15.590834 4.2508,-2.491134 14.21156,-6.244006 23.97978,-9.034756 6.57092,-1.87729 19.2501,-1.802704 26.88773,0.158169 22.31346,5.728728 36.37764,21.632304 43.70631,49.42251 8.35199,31.67056 1.31648,60.40856 -19.55176,79.86331 -9.056,8.4426 -15.40515,12.37258 -26.12019,16.16784 -16.59556,5.87813 -21.26043,6.62945 -30.39002,4.89461 z m -108,-51.77897 0,-19.853205 5.25,0.399114 c 10.44705,0.794202 42.40061,4.488901 48.75,5.636831 6.45714,1.1674 6.50173,1.19821 6.7623,4.67281 0.65899,8.78733 2.47139,16.2532 4.76667,19.63549 1.35907,2.0027 2.47103,3.99547 2.47103,4.42839 0,0.43292 0.7875,0.99293 1.75,1.24445 1.16313,0.30396 0.89485,0.49623 -0.8,0.57333 -1.4025,0.0638 -3.01618,-0.35018 -3.58595,-0.91995 -0.7146,-0.7146 -10.61552,-0.2493 -31.91798,1.5 C 292.46095,136.85882 277.98713,138 277.28202,138 276.28238,138 276,133.62714 276,118.14679 z m 90.85484,11.78326 c 1.29516,-0.51874 3.77016,-1.91694 5.5,-3.10711 l 3.14516,-2.16393 -2.93709,3.17049 c -1.88851,2.03859 -3.85209,3.14787 -5.5,3.10711 l -2.56291,-0.0634 2.35484,-0.94318 z"
         style="fill:#6b9925" />
      <path
         inkscape:connector-curvature="0"
         id="path3055"
         d="m 352,167 c 0,-0.55 -0.675,-1 -1.5,-1 -0.825,0 -1.5,-0.45 -1.5,-1 0,-0.55 -2.3625,-1.01729 -5.25,-1.03842 l -5.25,-0.0384 5,-4.51368 c 9.30112,-8.39644 8.65974,-8.27541 14.86452,-2.80492 l 5.43278,4.78985 -4.64545,3.3028 C 354.45422,168.0371 352,168.82732 352,167 z m 65.57856,-5.18858 c 2.70679,-1.75372 8.75006,-7.04122 13.42949,-11.75 9.29625,-9.35456 13.43899,-16.11235 18.03185,-29.41417 1.54719,-4.48099 3.81756,-10.84725 5.04528,-14.14725 2.70215,-7.263216 3.65934,-21.596693 1.98183,-29.677214 C 453.45497,64.240661 446.56732,54.097122 429.21058,37.270936 419.00844,27.380652 405.99465,22.06215 391.64466,21.918426 L 383.5,21.836852 387,20.287981 c 1.925,-0.85188 7.55835,-1.77104 12.51856,-2.042578 15.2255,-0.833496 29.82764,4.277305 40.30311,14.106233 21.88056,20.530088 29.97749,64.862463 17.07601,93.494694 -6.47151,14.36222 -20.17325,28.65123 -34.20495,35.671 -8.71033,4.3576 -11.64666,4.52646 -5.11417,0.29409 z M 276,118.14679 l 0,-19.853205 5.25,0.399751 c 10.90321,0.830203 33.64368,3.376124 43.88213,4.912854 l 10.63212,1.59582 1.10937,8.64899 c 0.61015,4.75695 1.72228,11.0115 2.47139,13.899 0.74911,2.8875 1.07221,5.25 0.71801,5.25 -0.35421,0 -14.33257,1.125 -31.06302,2.5 -16.73045,1.375 -30.99973,2.5 -31.7095,2.5 C 276.27984,138 276,133.69497 276,118.14679 z M 367.5,130 c 2.75248,-1.18278 3.731,-1.18278 3,0 -0.33992,0.55 -1.60398,0.96837 -2.80902,0.92971 C 365.57862,130.86195 365.57176,130.82859 367.5,130 z"
         style="fill:#c5341a" />
      <path
         inkscape:connector-curvature="0"
         id="path3053"
         d="m 417.57856,161.81142 c 2.70679,-1.75372 8.75006,-7.04122 13.42949,-11.75 9.29625,-9.35456 13.43899,-16.11235 18.03185,-29.41417 1.54719,-4.48099 3.81756,-10.84725 5.04528,-14.14725 2.70215,-7.263216 3.65934,-21.596693 1.98183,-29.677214 C 453.45497,64.240661 446.56732,54.097122 429.21058,37.270936 419.00844,27.380652 405.99465,22.06215 391.64466,21.918426 L 383.5,21.836852 387,20.287981 c 1.925,-0.85188 7.55835,-1.77104 12.51856,-2.042578 15.2255,-0.833496 29.82764,4.277305 40.30311,14.106233 21.88056,20.530088 29.97749,64.862463 17.07601,93.494694 -6.47151,14.36222 -20.17325,28.65123 -34.20495,35.671 -8.71033,4.3576 -11.64666,4.52646 -5.11417,0.29409 z M 357,158.28307 c 0,-0.90979 -0.97844,-2.69567 -2.17431,-3.96862 C 353.62981,153.0415 352.86654,152 353.12952,152 c 0.26298,0 1.94675,1.51522 3.74171,3.36715 2.64923,2.7333 2.96852,3.48037 1.69617,3.96861 -1.03391,0.39675 -1.5674,0.0385 -1.5674,-1.05269 z M 313,118.62921 C 313,107.54798 313.35481,102 314.06348,102 c 0.58492,0 5.70723,0.72325 11.38293,1.60723 l 10.31944,1.60722 1.10857,8.64278 c 0.60971,4.75352 1.70841,10.95491 2.44156,13.78085 l 1.33299,5.13809 -7.07449,0.63655 c -3.89096,0.3501 -10.11198,0.90861 -13.82448,1.24112 l -6.75,0.60458 0,-16.62921 z M 367.5,130 c 2.75248,-1.18278 3.731,-1.18278 3,0 -0.33992,0.55 -1.60398,0.96837 -2.80902,0.92971 C 365.57862,130.86195 365.57176,130.82859 367.5,130 z"
         style="fill:#bd3115" />
      <path
         inkscape:connector-curvature="0"
         id="path3051"
         d="m 417.57856,161.81142 c 2.70679,-1.75372 8.75006,-7.04122 13.42949,-11.75 9.29625,-9.35456 13.43899,-16.11235 18.03185,-29.41417 1.54719,-4.48099 3.81756,-10.84725 5.04528,-14.14725 2.70215,-7.263216 3.65934,-21.596693 1.98183,-29.677214 C 453.45497,64.240661 446.56732,54.097122 429.21058,37.270936 419.00844,27.380652 405.99465,22.06215 391.64466,21.918426 L 383.5,21.836852 387,20.287981 c 1.925,-0.85188 7.55835,-1.77104 12.51856,-2.042578 15.2255,-0.833496 29.82764,4.277305 40.30311,14.106233 21.88056,20.530088 29.97749,64.862463 17.07601,93.494694 -6.47151,14.36222 -20.17325,28.65123 -34.20495,35.671 -8.71033,4.3576 -11.64666,4.52646 -5.11417,0.29409 z"
         style="fill:#4f7611" />
    </g>
  </g>
</svg>
